<svg xmlns="http://www.w3.org/2000/svg" xmlns:xlink="http://www.w3.org/1999/xlink" viewBox="0 0 500 500"><defs><clipPath id="freepik--clip-path--inject-4"><circle cx="253" cy="313.47" r="129.85" style="fill:#1A1A1A;stroke:#263238;stroke-linecap:round;stroke-linejoin:round"></circle></clipPath><clipPath id="freepik--clip-path-2--inject-4"><circle cx="253" cy="313.47" r="129.85" style="fill:#fff;opacity:0.30000000000000004"></circle></clipPath><clipPath id="freepik--clip-path-3--inject-4"><polygon points="371.66 259.7 379.67 275.6 390.65 270.35 383.67 256.5 371.66 259.7" style="fill:#1A1A1A;stroke:#263238;stroke-linecap:round;stroke-linejoin:round"></polygon></clipPath><clipPath id="freepik--clip-path-4--inject-4"><polygon points="388.51 293.13 380.5 277.23 391.53 272.1 395.87 280.69 385.99 287.44 388.79 292.99 388.51 293.13" style="fill:#1A1A1A;stroke:#263238;stroke-linecap:round;stroke-linejoin:round"></polygon></clipPath><clipPath id="freepik--clip-path-5--inject-4"><rect x="393.79" y="257.49" width="10.84" height="4.15" rx="1.61" transform="translate(347.14 732.88) rotate(-116.75)" style="fill:#1A1A1A;stroke:#263238;stroke-linecap:round;stroke-linejoin:round"></rect></clipPath><clipPath id="freepik--clip-path-6--inject-4"><path d="M266.52,125,245,168.26s-12.71-2.86-16.49-7.62c0,0,3.48-13.78,5.93-21.56a7.81,7.81,0,0,0-.8-6.51c-1.21-1.91-2.34-4.44-1.57-6.4,1.42-3.63,11.56-9,11.56-9l10.81-2.86L266,120.65l1.12.95Z" style="fill:#1A1A1A;stroke:#263238;stroke-linecap:round;stroke-linejoin:round"></path></clipPath><clipPath id="freepik--clip-path-7--inject-4"><path d="M228.5,158.16s10.78,6.85,18,7.83c0,0,.61,2.36-1.31,3.35a1.79,1.79,0,0,1-1.17,1.85s-10.79-2.62-16.64-7.91c0,0-.62-.44.45-2A3,3,0,0,1,228.5,158.16Z" style="fill:#1A1A1A;stroke:#263238;stroke-linecap:round;stroke-linejoin:round"></path></clipPath><clipPath id="freepik--clip-path-8--inject-4"><path d="M273.39,157.26s10.49-7.3,14.18-13.58c0,0,2.41.35,2.58,2.5,0,0,1.8.51,1.89,2.06,0,0-7.22,8.68-14.35,12a2.65,2.65,0,0,1-2.32-1.46S274.17,159.07,273.39,157.26Z" style="fill:#1A1A1A;stroke:#263238;stroke-linecap:round;stroke-linejoin:round"></path></clipPath><clipPath id="freepik--clip-path-9--inject-4"><path d="M282.27,68.69s3.15,6.59,3.67,11.58,3.26,11.51,3.78,13.92,1.2-1,3.78-.69c0,0-2.36,6.77,4.21,8a.6.6,0,0,0,.39.93c-1.71,2.38-6.94,9.12-9.93,7.27C284.56,107.42,278,97.11,278,97.11S279.46,65.2,282.27,68.69Z" style="fill:#fff;stroke:#263238;stroke-linecap:round;stroke-linejoin:round"></path></clipPath><clipPath id="freepik--clip-path-10--inject-4"><path d="M276.08,105.36c3.67-6.42,11.46-25.9,6.19-36.67S265,55.41,256.84,54C236.59,50.44,243.09,87,238.73,99.17c-2.66,7.42-3.77,14.59-5.31,19,0,0,13-4.22,22.44-.13S266.52,125,266.52,125,273.66,109.6,276.08,105.36Z" style="fill:#fff;stroke:#263238;stroke-linecap:round;stroke-linejoin:round"></path></clipPath></defs><g id="freepik--background-simple--inject-4"><path d="M446.09,244.25c36,101-37.81,185-138.78,221S89.8,433.29,53.77,332.32,93.58,161,194.56,125,410.07,143.28,446.09,244.25Z" style="fill:#1A1A1A"></path><path d="M446.06,244.16c36,101-37.81,185-138.78,221S89.77,433.2,53.74,332.23,93.55,161,194.53,124.93,410,143.19,446.06,244.16Z" style="fill:#fff;opacity:0.7000000000000001"></path></g><g id="freepik--World--inject-4"><circle cx="253" cy="313.47" r="129.85" style="fill:#1A1A1A"></circle><g style="clip-path:url(#freepik--clip-path--inject-4)"><circle cx="253" cy="313.47" r="129.85" style="fill:#fff;opacity:0.30000000000000004"></circle><g style="clip-path:url(#freepik--clip-path-2--inject-4)"><path d="M186.85,236.92c-1.51-1.13-8.69,1.32-8.72-.81,0-1.42,4.84-5.4,5.75-7.17,1.34-2.63.64-6.3,1.89-8.77a23,23,0,0,1,4.07-5.79c7.31-6.16,18.44-12.85,27.72-13.31,3.34-.17,7.92,5.56,8.67,10,.45,2.65,0,10.53-2.34,13.29-3.54,4.17-11.29,4.21-15.41,7.46-4.79,3.77-7.12,12.66-12.64,15.62-1.54.82-4.46-.79-5.46-1.63C188.55,244.28,188.58,238.23,186.85,236.92Z" style="fill:#1A1A1A"></path><path d="M337.4,370.57a4.54,4.54,0,0,0-2.59.16c-2.14,1.24-5.28,5.91-6.39,8.22-1.26,2.63-2.79,8.33-2.67,10.79.07,1.38.87,4.12,2,4.26.87.1,3.15-1.59,4-2.56,4.14-5,9.12-12.7,8.75-18.86C340.4,371.66,338.34,370.8,337.4,370.57Z" style="fill:#1A1A1A"></path><path d="M258.67,251.75c1.56-.15,5-1,6-2.4,1.54-2.28,2.12-9.1.52-11-.68-.81-3.2-.64-4.06.07-1.12.92-.82,4.84-1.93,5.83s-4.27-.41-5.25.69-1.23,4.68-.48,5.78S257.31,251.88,258.67,251.75Z" style="fill:#1A1A1A"></path><path d="M336.14,213.72a6.21,6.21,0,0,0-2.35,3.92c-.05,1.07,2.09,4.11,1.82,5.05-.67,2.29-6.05,3.91-8.75,2.47-.83-.44-1.55-3-2.35-3.52-3.34-2.32-9.72-.75-12.95-.95a26.31,26.31,0,0,1-4.63-.26c-5.49-1.69-11.18-7.37-16.75-7.59-2.78-.11-9.05,3.87-11,6.8a26.62,26.62,0,0,0-4.33,14c0,2.06,1.88,6.45,3.51,7.55s6.2,1.33,7.7,0c1-.89.44-4.7,1.29-5.79s4.33-3.19,5.35-2.23c3.1,2.91,3.84,11,2,14.51-2,3.78-10.35,7.69-14.67,5.67-1.59-.74-.27-6.71-1.64-8.13s-5.43-2.4-6.75-1.15c-1.61,1.52,1.13,7.43-.18,9.3-1.46,2.06-7.26,1.41-9.24,3-1.46,1.15-3.93,4.53-4.12,6.42-.15,1.62,3.4,4.38,2.53,5.77-1.24,2-7.4-1.7-8.92.1-2,2.41-.57,10.17,1.71,12.13,1.7,1.46,7.27,1.35,9.12-.07,1.31-1,.51-5.42,1.84-6.39,1.76-1.28,6.39,1.06,8.45.55,1.61-.41,4-3.78,5.64-3.5,2.16.38,5.29,4.75,5.69,7,.31,1.67-3.47,5.23-2.23,6.38,1.52,1.41,6.63-1.55,7.39-3.46,1-2.41-4.47-7.47-3.56-9.89a3.93,3.93,0,0,1,3.32-1.72c3.13.75,5,9.61,8.19,10.49,2.24.63,6.13-3.92,8.38-3.39,2.67.64,7,5.5,7.79,8.17.57,1.86-.15,6.31-1.45,7.48-4.49,4-12.85,4.92-19,4.54-2.92-.18-8.88-2.58-11-4.67-1.49-1.44-1.81-6.58-3.48-7.55-4.34-2.52-11.25-2.12-16-.55C254,287,243.73,295,239,302.78c-1.7,2.82,0,10.41-1.7,13.23-.53.88-3,1.37-3.43,2.28-1.43,2.78-1.05,9.94.49,12.63a29.52,29.52,0,0,0,14.27,11.71c5.9,2,14-1.24,20.26.18,2,.45,6.24,2.75,7.32,4.66,1.43,2.51-.77,9.1.58,11.63,1.11,2.08,7.18,2,8,4,3.07,7.32-4.26,17.18-3.14,25,.38,2.65,4.46,6.75,4.84,9.24.71,4.63-1.85,10.91-.05,15.07,1.18,2.74,8.13,3.83,10.74,2.46,5.62-2.95,11.8-10,14.44-15.71,2.41-5.17.35-13.25,3-17.76,2.11-3.66,8.92-5.4,11.18-9.07,3.35-5.44.76-15.44,3.92-21.1,2.47-4.44,9.66-7,12-11.68.93-1.83.46-7.35-.87-8.43-3.26-2.66-10.95-.81-14.08-3.75-1.36-1.28.63-7-.21-9.14s-5-4.27-5.69-6.28c-.75-2.17-1.11-7.61.57-9.18.73-.69,3.22-.46,4.06,0,4.52,2.54,8.3,8.1,9.81,13.11.52,1.71-1.81,5.86-.85,7.4.71,1.11,3.79,1.84,5.11,1.63,5.78-.9,15.7-5.23,16.65-9.74,1.15-5.53-13.91-11.8-12.3-18,.51-2,8.17-1.89,10.4-.45,1.56,1,1.42,5.39,2.55,6.71,3.07,3.6,7.88,6.07,12.21,8.31,2,1.05,7.46,1.35,8.6,3.21,1.49,2.43-2.87,8.9-2,11.44a31.68,31.68,0,0,0,5.28,9.23,130,130,0,0,0-44.81-122Z" style="fill:#1A1A1A"></path><path d="M185.05,397.4c-4.86-4.6-10.48-11.89-11-17.71-.61-6.72,12.5-9.77,13.21-17.28.25-2.71-6.27-9.82-5.75-12.66S189.31,344,189,341c-.66-6.27-7.32-13.34-12.55-16.72-2.82-1.82-11,.45-13.44-1.92-1.16-1.12.72-4.8-.47-5.85-1.52-1.33-6.22.65-8.12-.11-2.22-.89-4.55-5.61-6.65-6.32-7.15-2.38-17.57,3.5-24.58.7,0,.91,0,1.82,0,2.74,0,.21,0,.42,0,.64a6.91,6.91,0,0,1,2.93,2.76c.57,1.53-.37,4.85-1.53,5.86a2,2,0,0,1-1.06.3q.41,5.57,1.27,11c3.58,2.28,8.29,3.79,10.63,6.91,1.42,1.9-1.63,6.3,0,8.16,3.22,3.66,10.5,4,14.08,7.21,8.35,7.58,9.73,22.89,19.14,31.54,1.64,1.51,5.58,3,7.18,4.53,2.27,2.21,3.21,6.32,5.65,8.43,4.18,3.62,11.25,9.59,15.12,9.26.7-.06-2-6-4.21-8.39C190.71,399.9,186.8,399.07,185.05,397.4Z" style="fill:#1A1A1A"></path><path d="M128,290.13c.71.3,2.74.41,3.45-.14,1.65-1.3.2-5.52,1.57-7,5.78-6.23,17.47-5.79,22.9-12.5,1.52-1.88-.81-6.76,1.25-8.18,6.49-4.47,16.81,4.89,22.49.78,3.36-2.42,6.35-10.8,4.79-14.59-.29-.7-3.93,1-4.67.46-1.48-1.06,1-7.63-.36-8.09-3.88-1.31-10.34,2.1-14.4,4.33-1.12.61-3.08,3.09-4.17,3.44-2.32.73-6.87-.86-5.64-2.52,2.7-3.7,9.72-4.68,13.59-7.66,3.4-2.63,9.39-8.08,9.31-10.89-.1-3.81-16.31.48-20.36,2.53-2.39,1.2-7.56,6.18-10,7.36a129.29,129.29,0,0,0-21.78,49.22C126.49,288.09,127,289.7,128,290.13Z" style="fill:#1A1A1A"></path><g style="opacity:0.2"><path d="M186.85,236.92c-1.51-1.13-8.69,1.32-8.72-.81,0-1.42,4.84-5.4,5.75-7.17,1.34-2.63.64-6.3,1.89-8.77a23,23,0,0,1,4.07-5.79c7.31-6.16,18.44-12.85,27.72-13.31,3.34-.17,7.92,5.56,8.67,10,.45,2.65,0,10.53-2.34,13.29-3.54,4.17-11.29,4.21-15.41,7.46-4.79,3.77-7.12,12.66-12.64,15.62-1.54.82-4.46-.79-5.46-1.63C188.55,244.28,188.58,238.23,186.85,236.92Z"></path><path d="M337.4,370.57a4.54,4.54,0,0,0-2.59.16c-2.14,1.24-5.28,5.91-6.39,8.22-1.26,2.63-2.79,8.33-2.67,10.79.07,1.38.87,4.12,2,4.26.87.1,3.15-1.59,4-2.56,4.14-5,9.12-12.7,8.75-18.86C340.4,371.66,338.34,370.8,337.4,370.57Z"></path><path d="M258.67,251.75c1.56-.15,5-1,6-2.4,1.54-2.28,2.12-9.1.52-11-.68-.81-3.2-.64-4.06.07-1.12.92-.82,4.84-1.93,5.83s-4.27-.41-5.25.69-1.23,4.68-.48,5.78S257.31,251.88,258.67,251.75Z"></path><path d="M336.14,213.72a6.21,6.21,0,0,0-2.35,3.92c-.05,1.07,2.09,4.11,1.82,5.05-.67,2.29-6.05,3.91-8.75,2.47-.83-.44-1.55-3-2.35-3.52-3.34-2.32-9.72-.75-12.95-.95a26.31,26.31,0,0,1-4.63-.26c-5.49-1.69-11.18-7.37-16.75-7.59-2.78-.11-9.05,3.87-11,6.8a26.62,26.62,0,0,0-4.33,14c0,2.06,1.88,6.45,3.51,7.55s6.2,1.33,7.7,0c1-.89.44-4.7,1.29-5.79s4.33-3.19,5.35-2.23c3.1,2.91,3.84,11,2,14.51-2,3.78-10.35,7.69-14.67,5.67-1.59-.74-.27-6.71-1.64-8.13s-5.43-2.4-6.75-1.15c-1.61,1.52,1.13,7.43-.18,9.3-1.46,2.06-7.26,1.41-9.24,3-1.46,1.15-3.93,4.53-4.12,6.42-.15,1.62,3.4,4.38,2.53,5.77-1.24,2-7.4-1.7-8.92.1-2,2.41-.57,10.17,1.71,12.13,1.7,1.46,7.27,1.35,9.12-.07,1.31-1,.51-5.42,1.84-6.39,1.76-1.28,6.39,1.06,8.45.55,1.61-.41,4-3.78,5.64-3.5,2.16.38,5.29,4.75,5.69,7,.31,1.67-3.47,5.23-2.23,6.38,1.52,1.41,6.63-1.55,7.39-3.46,1-2.41-4.47-7.47-3.56-9.89a3.93,3.93,0,0,1,3.32-1.72c3.13.75,5,9.61,8.19,10.49,2.24.63,6.13-3.92,8.38-3.39,2.67.64,7,5.5,7.79,8.17.57,1.86-.15,6.31-1.45,7.48-4.49,4-12.85,4.92-19,4.54-2.92-.18-8.88-2.58-11-4.67-1.49-1.44-1.81-6.58-3.48-7.55-4.34-2.52-11.25-2.12-16-.55C254,287,243.73,295,239,302.78c-1.7,2.82,0,10.41-1.7,13.23-.53.88-3,1.37-3.43,2.28-1.43,2.78-1.05,9.94.49,12.63a29.52,29.52,0,0,0,14.27,11.71c5.9,2,14-1.24,20.26.18,2,.45,6.24,2.75,7.32,4.66,1.43,2.51-.77,9.1.58,11.63,1.11,2.08,7.18,2,8,4,3.07,7.32-4.26,17.18-3.14,25,.38,2.65,4.46,6.75,4.84,9.24.71,4.63-1.85,10.91-.05,15.07,1.18,2.74,8.13,3.83,10.74,2.46,5.62-2.95,11.8-10,14.44-15.71,2.41-5.17.35-13.25,3-17.76,2.11-3.66,8.92-5.4,11.18-9.07,3.35-5.44.76-15.44,3.92-21.1,2.47-4.44,9.66-7,12-11.68.93-1.83.46-7.35-.87-8.43-3.26-2.66-10.95-.81-14.08-3.75-1.36-1.28.63-7-.21-9.14s-5-4.27-5.69-6.28c-.75-2.17-1.11-7.61.57-9.18.73-.69,3.22-.46,4.06,0,4.52,2.54,8.3,8.1,9.81,13.11.52,1.71-1.81,5.86-.85,7.4.71,1.11,3.79,1.84,5.11,1.63,5.78-.9,15.7-5.23,16.65-9.74,1.15-5.53-13.91-11.8-12.3-18,.51-2,8.17-1.89,10.4-.45,1.56,1,1.42,5.39,2.55,6.71,3.07,3.6,7.88,6.07,12.21,8.31,2,1.05,7.46,1.35,8.6,3.21,1.49,2.43-2.87,8.9-2,11.44a31.68,31.68,0,0,0,5.28,9.23,130,130,0,0,0-44.81-122Z"></path><path d="M185.05,397.4c-4.86-4.6-10.48-11.89-11-17.71-.61-6.72,12.5-9.77,13.21-17.28.25-2.71-6.27-9.82-5.75-12.66S189.31,344,189,341c-.66-6.27-7.32-13.34-12.55-16.72-2.82-1.82-11,.45-13.44-1.92-1.16-1.12.72-4.8-.47-5.85-1.52-1.33-6.22.65-8.12-.11-2.22-.89-4.55-5.61-6.65-6.32-7.15-2.38-17.57,3.5-24.58.7,0,.91,0,1.82,0,2.74,0,.21,0,.42,0,.64a6.91,6.91,0,0,1,2.93,2.76c.57,1.53-.37,4.85-1.53,5.86a2,2,0,0,1-1.06.3q.41,5.57,1.27,11c3.58,2.28,8.29,3.79,10.63,6.91,1.42,1.9-1.63,6.3,0,8.16,3.22,3.66,10.5,4,14.08,7.21,8.35,7.58,9.73,22.89,19.14,31.54,1.64,1.51,5.58,3,7.18,4.53,2.27,2.21,3.21,6.32,5.65,8.43,4.18,3.62,11.25,9.59,15.12,9.26.7-.06-2-6-4.21-8.39C190.71,399.9,186.8,399.07,185.05,397.4Z"></path><path d="M128,290.13c.71.3,2.74.41,3.45-.14,1.65-1.3.2-5.52,1.57-7,5.78-6.23,17.47-5.79,22.9-12.5,1.52-1.88-.81-6.76,1.25-8.18,6.49-4.47,16.81,4.89,22.49.78,3.36-2.42,6.35-10.8,4.79-14.59-.29-.7-3.93,1-4.67.46-1.48-1.06,1-7.63-.36-8.09-3.88-1.31-10.34,2.1-14.4,4.33-1.12.61-3.08,3.09-4.17,3.44-2.32.73-6.87-.86-5.64-2.52,2.7-3.7,9.72-4.68,13.59-7.66,3.4-2.63,9.39-8.08,9.31-10.89-.1-3.81-16.31.48-20.36,2.53-2.39,1.2-7.56,6.18-10,7.36a129.29,129.29,0,0,0-21.78,49.22C126.49,288.09,127,289.7,128,290.13Z"></path></g></g></g><circle cx="253" cy="313.47" r="129.85" style="fill:none;stroke:#263238;stroke-linecap:round;stroke-linejoin:round"></circle></g><g id="freepik--Graphics--inject-4"><path d="M316.09,299.56s1.44-.39,3.91-.79" style="fill:none;stroke:#263238;stroke-linecap:round;stroke-linejoin:round"></path><path d="M324.84,298.18a62.73,62.73,0,0,1,22.7,2.14" style="fill:none;stroke:#263238;stroke-linecap:round;stroke-linejoin:round;stroke-dasharray:7.803410053253174,4.877130031585693,7.803410053253174,4.877130031585693"></path><path d="M349.87,301.06c9.6,3.31,19.49,9.81,27.05,22" style="fill:none;stroke:#263238;stroke-linecap:round;stroke-linejoin:round;stroke-dasharray:7.803410053253174,4.877130031585693,7.803410053253174,4.877130031585693,7.803410053253174,4.877130031585693"></path><path d="M378.16,325.2c.64,1.13,1.27,2.31,1.87,3.54" style="fill:none;stroke:#263238;stroke-linecap:round;stroke-linejoin:round"></path><path d="M307.82,299.1a27.74,27.74,0,0,0-3.74-1.4" style="fill:none;stroke:#263238;stroke-linecap:round;stroke-linejoin:round"></path><path d="M299.71,296.67c-5.62-.95-13.28-.81-20.11,4.29" style="fill:none;stroke:#263238;stroke-linecap:round;stroke-linejoin:round;stroke-dasharray:7.198040008544922,4.498779773712158,7.198040008544922,4.498779773712158"></path><path d="M277.86,302.39a28.25,28.25,0,0,0-2.77,2.88" style="fill:none;stroke:#263238;stroke-linecap:round;stroke-linejoin:round"></path><path d="M266.71,304.82s-.11-1.5-.36-4" style="fill:none;stroke:#263238;stroke-linecap:round;stroke-linejoin:round"></path><path d="M266,297.17c-.54-4.68-1.42-10.95-2.72-17.13" style="fill:none;stroke:#263238;stroke-linecap:round;stroke-linejoin:round;stroke-dasharray:5.908899784088135,3.6930599212646484,5.908899784088135,3.6930599212646484"></path><path d="M262.84,278.24c-2.66-11.78-6.9-22.63-13.41-20.8" style="fill:none;stroke:#263238;stroke-linecap:round;stroke-linejoin:round;stroke-dasharray:5.908899784088135,3.6930599212646484,5.908899784088135,3.6930599212646484,5.908899784088135,3.6930599212646484"></path><path d="M247.73,258.18a14.27,14.27,0,0,0-3.06,2.57" style="fill:none;stroke:#263238;stroke-linecap:round;stroke-linejoin:round"></path><path d="M236.4,260.86s-1.35-.61-3.74-1.41" style="fill:none;stroke:#263238;stroke-linecap:round;stroke-linejoin:round"></path><path d="M226.85,257.78a70.12,70.12,0,0,0-28.22-1.27" style="fill:none;stroke:#263238;stroke-linecap:round;stroke-linejoin:round;stroke-dasharray:9.682709693908691,6.051690101623535,9.682709693908691,6.051690101623535"></path><path d="M195.66,257.11c-12.06,2.74-24.79,9.75-35.14,25" style="fill:none;stroke:#263238;stroke-linecap:round;stroke-linejoin:round;stroke-dasharray:9.682709693908691,6.051690101623535,9.682709693908691,6.051690101623535,9.682709693908691,6.051690101623535"></path><path d="M158.87,284.62c-.7,1.11-1.38,2.26-2,3.44" style="fill:none;stroke:#263238;stroke-linecap:round;stroke-linejoin:round"></path><path d="M151.15,291.5s-1.64-.88-3.53,1.23" style="fill:none;stroke:#263238;stroke-linecap:round;stroke-linejoin:round"></path><path d="M146.09,295.13c-1.19,2.47-2.34,6.5-3.1,13" style="fill:none;stroke:#263238;stroke-linecap:round;stroke-linejoin:round;stroke-dasharray:4.567279815673828,2.8545498847961426,4.567279815673828,2.8545498847961426"></path><path d="M142.83,309.55a188.67,188.67,0,0,0-.76,20.81" style="fill:none;stroke:#263238;stroke-linecap:round;stroke-linejoin:round;stroke-dasharray:4.567279815673828,2.8545498847961426,4.567279815673828,2.8545498847961426,4.567279815673828,2.8545498847961426"></path><path d="M142.09,331.81c0,1.29,0,2.62.08,4" style="fill:none;stroke:#263238;stroke-linecap:round;stroke-linejoin:round"></path><path d="M384.75,332.28a34.36,34.36,0,0,0,2.43-3.18" style="fill:none;stroke:#263238;stroke-linecap:round;stroke-linejoin:round"></path><path d="M388.06,327.68c1.56-2.7,2.56-5.79-.11-6.88" style="fill:none;stroke:#263238;stroke-linecap:round;stroke-linejoin:round;stroke-dasharray:2.6859400272369385,1.6787099838256836,2.6859400272369385,1.6787099838256836"></path><path d="M387.15,320.56a12.18,12.18,0,0,0-4,0" style="fill:none;stroke:#263238;stroke-linecap:round;stroke-linejoin:round"></path><path d="M139.08,337.13s-.41-1.55-1.11-3.84" style="fill:none;stroke:#263238;stroke-linecap:round;stroke-linejoin:round"></path><path d="M136.55,328.89c-3-8.74-7.94-20.08-11.13-10.76" style="fill:none;stroke:#263238;stroke-linecap:round;stroke-linejoin:round;stroke-dasharray:7.3987298011779785,4.624209880828857,7.3987298011779785,4.624209880828857"></path><path d="M124.79,320.36q-.41,1.67-.75,3.93" style="fill:none;stroke:#263238;stroke-linecap:round;stroke-linejoin:round"></path><path d="M311.86,293a5.79,5.79,0,0,0-5.79,5.78c0,2.34,3.09,6.48,4.75,8.55a1.34,1.34,0,0,0,2.08,0c1.66-2.07,4.75-6.21,4.75-8.55A5.78,5.78,0,0,0,311.86,293Zm0,8.64a2.86,2.86,0,1,1,2.85-2.86A2.86,2.86,0,0,1,311.86,301.64Z" style="fill:#fff;stroke:#263238;stroke-linecap:round;stroke-linejoin:round"></path><path d="M295.19,323.14a5.78,5.78,0,0,0-5.78,5.79c0,2.33,3.08,6.48,4.75,8.54a1.33,1.33,0,0,0,2.07,0c1.67-2.06,4.75-6.21,4.75-8.54A5.79,5.79,0,0,0,295.19,323.14Zm0,8.64a2.85,2.85,0,1,1,2.85-2.85A2.86,2.86,0,0,1,295.19,331.78Z" style="fill:#fff;stroke:#263238;stroke-linecap:round;stroke-linejoin:round"></path><path d="M333.57,369.39a5.78,5.78,0,0,0-5.78,5.79c0,2.33,3.08,6.47,4.75,8.54a1.33,1.33,0,0,0,2.07,0c1.66-2.07,4.75-6.21,4.75-8.54A5.79,5.79,0,0,0,333.57,369.39Zm0,8.64a2.86,2.86,0,1,1,2.85-2.85A2.86,2.86,0,0,1,333.57,378Z" style="fill:#fff;stroke:#263238;stroke-linecap:round;stroke-linejoin:round"></path><path d="M357.21,240.88a5.78,5.78,0,0,0-5.78,5.79c0,2.33,3.08,6.47,4.75,8.54a1.33,1.33,0,0,0,2.07,0c1.66-2.07,4.75-6.21,4.75-8.54A5.79,5.79,0,0,0,357.21,240.88Zm0,8.64a2.85,2.85,0,1,1,2.85-2.85A2.86,2.86,0,0,1,357.21,249.52Z" style="fill:#fff;stroke:#263238;stroke-linecap:round;stroke-linejoin:round"></path><path d="M190,391.07a5.78,5.78,0,0,0-5.78,5.79c0,2.33,3.08,6.47,4.75,8.54a1.33,1.33,0,0,0,2.07,0c1.67-2.07,4.75-6.21,4.75-8.54A5.79,5.79,0,0,0,190,391.07Zm0,8.64a2.85,2.85,0,1,1,2.86-2.85A2.86,2.86,0,0,1,190,399.71Z" style="fill:#fff;stroke:#263238;stroke-linecap:round;stroke-linejoin:round"></path><path d="M148,242.11a5.79,5.79,0,0,0-5.79,5.78c0,2.33,3.09,6.48,4.75,8.54a1.33,1.33,0,0,0,2.08,0c1.66-2.06,4.75-6.21,4.75-8.54A5.78,5.78,0,0,0,148,242.11Zm0,8.63a2.85,2.85,0,1,1,2.85-2.85A2.85,2.85,0,0,1,148,250.74Z" style="fill:#fff;stroke:#263238;stroke-linecap:round;stroke-linejoin:round"></path><path d="M203.94,207.75a5.78,5.78,0,0,0-5.79,5.78c0,2.34,3.08,6.48,4.75,8.55a1.33,1.33,0,0,0,2.07,0c1.67-2.07,4.75-6.21,4.75-8.55A5.78,5.78,0,0,0,203.94,207.75Zm0,8.63a2.85,2.85,0,1,1,2.85-2.85A2.85,2.85,0,0,1,203.94,216.38Z" style="fill:#fff;stroke:#263238;stroke-linecap:round;stroke-linejoin:round"></path><path d="M327.46,228.19a5.79,5.79,0,0,0-5.79,5.79c0,2.33,3.09,6.47,4.75,8.54a1.34,1.34,0,0,0,2.08,0c1.66-2.07,4.74-6.21,4.74-8.54A5.78,5.78,0,0,0,327.46,228.19Zm0,8.64a2.85,2.85,0,1,1,2.85-2.85A2.85,2.85,0,0,1,327.46,236.83Z" style="fill:#fff;stroke:#263238;stroke-linecap:round;stroke-linejoin:round"></path><path d="M240.35,254.42a5.78,5.78,0,0,0-5.78,5.78c0,2.34,3.08,6.48,4.75,8.55a1.33,1.33,0,0,0,2.07,0c1.67-2.07,4.75-6.21,4.75-8.55A5.78,5.78,0,0,0,240.35,254.42Zm0,8.63a2.85,2.85,0,1,1,2.85-2.85A2.85,2.85,0,0,1,240.35,263.05Z" style="fill:#fff;stroke:#263238;stroke-linecap:round;stroke-linejoin:round"></path><path d="M152.75,282.13a5.79,5.79,0,0,0-5.79,5.79c0,2.33,3.09,6.47,4.75,8.54a1.34,1.34,0,0,0,2.08,0c1.66-2.07,4.74-6.21,4.74-8.54A5.78,5.78,0,0,0,152.75,282.13Zm0,8.64a2.85,2.85,0,1,1,2.85-2.85A2.85,2.85,0,0,1,152.75,290.77Z" style="fill:#fff;stroke:#263238;stroke-linecap:round;stroke-linejoin:round"></path><path d="M142.17,333.56a5.78,5.78,0,0,0-5.78,5.79c0,2.33,3.08,6.48,4.75,8.54a1.32,1.32,0,0,0,2.07,0c1.67-2.06,4.75-6.21,4.75-8.54A5.79,5.79,0,0,0,142.17,333.56Zm0,8.64a2.85,2.85,0,1,1,2.85-2.85A2.86,2.86,0,0,1,142.17,342.2Z" style="fill:#fff;stroke:#263238;stroke-linecap:round;stroke-linejoin:round"></path><path d="M380.75,326.83a5.78,5.78,0,0,0-5.78,5.78c0,2.33,3.08,6.48,4.75,8.54a1.32,1.32,0,0,0,2.07,0c1.66-2.06,4.75-6.21,4.75-8.54A5.78,5.78,0,0,0,380.75,326.83Zm0,8.63a2.85,2.85,0,1,1,2.85-2.85A2.85,2.85,0,0,1,380.75,335.46Z" style="fill:#fff;stroke:#263238;stroke-linecap:round;stroke-linejoin:round"></path><path d="M270.85,298.89a5.79,5.79,0,0,0-5.79,5.79c0,2.33,3.09,6.47,4.75,8.54a1.33,1.33,0,0,0,2.07,0c1.67-2.07,4.75-6.21,4.75-8.54A5.78,5.78,0,0,0,270.85,298.89Zm0,8.64a2.85,2.85,0,1,1,2.85-2.85A2.85,2.85,0,0,1,270.85,307.53Z" style="fill:#fff;stroke:#263238;stroke-linecap:round;stroke-linejoin:round"></path><path d="M282.73,132.17q2.67.57,5.31,1.22" style="fill:none;stroke:#263238;stroke-linecap:round;stroke-linejoin:round"></path><path d="M199.46,135.67a167.27,167.27,0,0,1,78.27-4.49" style="fill:none;stroke:#263238;stroke-linecap:round;stroke-linejoin:round"></path><path d="M174.61,145.5q2.94-1.45,5.95-2.78" style="fill:none;stroke:#263238;stroke-linecap:round;stroke-linejoin:round"></path><path d="M131,176.62a166.89,166.89,0,0,1,39.62-29.08" style="fill:none;stroke:#263238;stroke-linecap:round;stroke-linejoin:round"></path><path d="M271.57,118.69q3.1.42,6.16.93" style="fill:none;stroke:#263238;stroke-linecap:round;stroke-linejoin:round"></path><path d="M237.37,117.43c3.48-.2,7-.31,10.51-.31a180.41,180.41,0,0,1,18.25.93" style="fill:none;stroke:#263238;stroke-linecap:round;stroke-linejoin:round"></path><path d="M181.85,129.81a176,176,0,0,1,37.59-10.42" style="fill:none;stroke:#263238;stroke-linecap:round;stroke-linejoin:round"></path><path d="M114.7,177.3a178,178,0,0,1,54.1-41.63" style="fill:none;stroke:#263238;stroke-linecap:round;stroke-linejoin:round"></path><path d="M160,126.8c1.66-.87,3.34-1.71,5-2.54" style="fill:none;stroke:#263238;stroke-linecap:round;stroke-linejoin:round"></path><path d="M113.55,161.15a190.06,190.06,0,0,1,42.08-32" style="fill:none;stroke:#263238;stroke-linecap:round;stroke-linejoin:round"></path><path d="M272.38,106.81c1.45.19,2.89.39,4.33.61" style="fill:none;stroke:#263238;stroke-linecap:round;stroke-linejoin:round"></path><path d="M247.88,105.24a190.71,190.71,0,0,1,20.94,1.15" style="fill:none;stroke:#263238;stroke-linecap:round;stroke-linejoin:round"></path><path d="M217.22,80c2.57-.36,5.17-.68,7.77-1" style="fill:none;stroke:#263238;stroke-linecap:round;stroke-linejoin:round"></path><path d="M146.94,102.79a215.07,215.07,0,0,1,62-21.41" style="fill:none;stroke:#263238;stroke-linecap:round;stroke-linejoin:round"></path><path d="M139.19,107.08c1.07-.63,2.15-1.24,3.23-1.84" style="fill:none;stroke:#263238;stroke-linecap:round;stroke-linejoin:round"></path><path d="M190,52.55c1.51-.36,3-.71,4.54-1" style="fill:none;stroke:#263238;stroke-linecap:round;stroke-linejoin:round"></path><path d="M150.39,65.6a248,248,0,0,1,36.17-12.21" style="fill:none;stroke:#263238;stroke-linecap:round;stroke-linejoin:round"></path><path d="M212.74,287.1a4.12,4.12,0,0,1-5.81,0,4.1,4.1,0,0,1-5.8,0,4.1,4.1,0,0,1-5.8,0,4.1,4.1,0,0,1-5.8,0,4.1,4.1,0,0,1-5.8,0" style="fill:none;stroke:#263238;stroke-linecap:round;stroke-linejoin:round"></path><path d="M209.93,290.51a4.1,4.1,0,0,1-5.8,0,4.1,4.1,0,0,1-5.8,0,4.1,4.1,0,0,1-5.8,0,4.1,4.1,0,0,1-5.8,0,4.1,4.1,0,0,1-5.8,0" style="fill:none;stroke:#263238;stroke-linecap:round;stroke-linejoin:round"></path><path d="M213.16,293.93a4.1,4.1,0,0,1-5.8,0,4.1,4.1,0,0,1-5.8,0,4.1,4.1,0,0,1-5.8,0,4.1,4.1,0,0,1-5.8,0,4.1,4.1,0,0,1-5.8,0" style="fill:none;stroke:#263238;stroke-linecap:round;stroke-linejoin:round"></path><path d="M255.34,384.11a4.1,4.1,0,0,1-5.8,0,4.1,4.1,0,0,1-5.8,0,4.1,4.1,0,0,1-5.8,0,4.12,4.12,0,0,1-5.81,0,4.1,4.1,0,0,1-5.8,0" style="fill:none;stroke:#263238;stroke-linecap:round;stroke-linejoin:round"></path><path d="M252.54,387.53a4.12,4.12,0,0,1-5.81,0,4.1,4.1,0,0,1-5.8,0,4.1,4.1,0,0,1-5.8,0,4.1,4.1,0,0,1-5.8,0,4.1,4.1,0,0,1-5.8,0" style="fill:none;stroke:#263238;stroke-linecap:round;stroke-linejoin:round"></path><path d="M255.76,390.94a4.1,4.1,0,0,1-5.8,0,4.1,4.1,0,0,1-5.8,0,4.1,4.1,0,0,1-5.8,0,4.1,4.1,0,0,1-5.8,0,4.1,4.1,0,0,1-5.8,0" style="fill:none;stroke:#263238;stroke-linecap:round;stroke-linejoin:round"></path><path d="M366.83,350.83a4.09,4.09,0,0,1-5.8,0,4.1,4.1,0,0,1-5.81,0,4.09,4.09,0,0,1-5.8,0,4.09,4.09,0,0,1-5.8,0,4.09,4.09,0,0,1-5.8,0" style="fill:none;stroke:#263238;stroke-linecap:round;stroke-linejoin:round"></path><path d="M364,354.25a4.1,4.1,0,0,1-5.8,0,4.1,4.1,0,0,1-5.8,0,4.1,4.1,0,0,1-5.8,0,4.1,4.1,0,0,1-5.8,0,4.1,4.1,0,0,1-5.8,0" style="fill:none;stroke:#263238;stroke-linecap:round;stroke-linejoin:round"></path><path d="M367.25,357.66a4.09,4.09,0,0,1-5.8,0,4.09,4.09,0,0,1-5.8,0,4.09,4.09,0,0,1-5.8,0,4.09,4.09,0,0,1-5.8,0,4.09,4.09,0,0,1-5.8,0" style="fill:none;stroke:#263238;stroke-linecap:round;stroke-linejoin:round"></path></g><g id="freepik--CIties--inject-4"><rect x="263.85" y="244.2" width="10.53" height="25.51" style="fill:#fff;stroke:#263238;stroke-linecap:round;stroke-linejoin:round"></rect><rect x="270.99" y="266.42" width="1.78" height="1.78" rx="0.5" transform="translate(4.57 539.19) rotate(-90)" style="fill:#263238"></rect><rect x="270.99" y="263.83" width="1.78" height="1.78" rx="0.5" transform="translate(7.16 536.6) rotate(-90)" style="fill:#1A1A1A"></rect><rect x="270.99" y="261.24" width="1.78" height="1.78" rx="0.5" transform="translate(9.75 534.01) rotate(-90)" style="fill:#263238"></rect><rect x="270.99" y="258.65" width="1.78" height="1.78" rx="0.5" transform="translate(12.34 531.42) rotate(-90)" style="fill:#263238"></rect><rect x="270.99" y="256.06" width="1.78" height="1.78" rx="0.5" transform="translate(14.92 528.83) rotate(-90)" style="fill:#1A1A1A"></rect><rect x="270.99" y="253.47" width="1.78" height="1.78" rx="0.5" transform="translate(17.51 526.24) rotate(-90)" style="fill:#263238"></rect><rect x="270.99" y="250.88" width="1.78" height="1.78" rx="0.5" transform="translate(20.1 523.65) rotate(-90)" style="fill:#263238"></rect><rect x="270.99" y="248.29" width="1.78" height="1.78" rx="0.5" transform="translate(22.69 521.06) rotate(-90)" style="fill:#263238"></rect><rect x="270.99" y="245.71" width="1.78" height="1.78" rx="0.5" transform="translate(25.28 518.47) rotate(-90)" style="fill:#1A1A1A"></rect><rect x="268.18" y="266.42" width="1.78" height="1.78" rx="0.5" transform="translate(1.76 536.38) rotate(-90)" style="fill:#1A1A1A"></rect><rect x="268.18" y="263.83" width="1.78" height="1.78" rx="0.5" transform="translate(4.35 533.79) rotate(-90)" style="fill:#263238"></rect><rect x="268.18" y="261.24" width="1.78" height="1.78" rx="0.5" transform="translate(6.94 531.2) rotate(-90)" style="fill:#1A1A1A"></rect><rect x="268.18" y="258.65" width="1.78" height="1.78" rx="0.5" transform="translate(9.53 528.61) rotate(-90)" style="fill:#1A1A1A"></rect><rect x="268.18" y="256.06" width="1.78" height="1.78" rx="0.5" transform="translate(12.12 526.02) rotate(-90)" style="fill:#263238"></rect><rect x="268.18" y="253.47" width="1.78" height="1.78" rx="0.5" transform="translate(14.71 523.43) rotate(-90)" style="fill:#1A1A1A"></rect><rect x="268.18" y="250.88" width="1.78" height="1.78" rx="0.5" transform="translate(17.3 520.85) rotate(-90)" style="fill:#1A1A1A"></rect><rect x="268.18" y="248.29" width="1.78" height="1.78" rx="0.5" transform="translate(19.88 518.26) rotate(-90)" style="fill:#1A1A1A"></rect><rect x="268.18" y="245.71" width="1.78" height="1.78" rx="0.5" transform="translate(22.47 515.67) rotate(-90)" style="fill:#263238"></rect><rect x="265.37" y="266.42" width="1.78" height="1.78" rx="0.5" transform="translate(-1.05 533.57) rotate(-90)" style="fill:#263238"></rect><rect x="265.37" y="263.83" width="1.78" height="1.78" rx="0.5" transform="translate(1.54 530.98) rotate(-90)" style="fill:#263238"></rect><rect x="265.37" y="261.24" width="1.78" height="1.78" rx="0.5" transform="translate(4.13 528.39) rotate(-90)" style="fill:#263238"></rect><rect x="265.37" y="258.65" width="1.78" height="1.78" rx="0.5" transform="translate(6.72 525.81) rotate(-90)" style="fill:#1A1A1A"></rect><rect x="265.37" y="256.06" width="1.78" height="1.78" rx="0.5" transform="translate(9.31 523.22) rotate(-90)" style="fill:#263238"></rect><rect x="265.37" y="253.47" width="1.78" height="1.78" rx="0.5" transform="translate(11.9 520.63) rotate(-90)" style="fill:#263238"></rect><rect x="265.37" y="250.88" width="1.78" height="1.78" rx="0.5" transform="translate(14.49 518.04) rotate(-90)" style="fill:#1A1A1A"></rect><rect x="265.37" y="248.29" width="1.78" height="1.78" rx="0.5" transform="translate(17.08 515.45) rotate(-90)" style="fill:#263238"></rect><rect x="265.37" y="245.71" width="1.78" height="1.78" rx="0.5" transform="translate(19.67 512.86) rotate(-90)" style="fill:#263238"></rect><rect x="276.29" y="256.11" width="5.61" height="13.6" style="fill:#fff;stroke:#263238;stroke-linecap:round;stroke-linejoin:round"></rect><path d="M280.09,268.43h0a.48.48,0,0,0,.48.48h0a.47.47,0,0,0,.47-.48h0a.47.47,0,0,0-.47-.47h0A.48.48,0,0,0,280.09,268.43Z" style="fill:#263238"></path><path d="M280.09,267.05h0a.48.48,0,0,0,.48.48h0a.47.47,0,0,0,.47-.48h0a.47.47,0,0,0-.47-.47h0A.48.48,0,0,0,280.09,267.05Z" style="fill:#263238"></path><path d="M280.09,265.67h0a.48.48,0,0,0,.48.48h0a.47.47,0,0,0,.47-.48h0a.47.47,0,0,0-.47-.47h0A.48.48,0,0,0,280.09,265.67Z" style="fill:#263238"></path><path d="M280.09,264.29h0a.48.48,0,0,0,.48.48h0a.47.47,0,0,0,.47-.48h0a.47.47,0,0,0-.47-.47h0A.48.48,0,0,0,280.09,264.29Z" style="fill:#fff"></path><path d="M280.09,262.91h0a.48.48,0,0,0,.48.48h0a.47.47,0,0,0,.47-.48h0a.47.47,0,0,0-.47-.47h0A.48.48,0,0,0,280.09,262.91Z" style="fill:#263238"></path><path d="M280.09,261.53h0a.48.48,0,0,0,.48.48h0a.47.47,0,0,0,.47-.48h0a.47.47,0,0,0-.47-.47h0A.48.48,0,0,0,280.09,261.53Z" style="fill:#263238"></path><path d="M280.09,260.15h0a.48.48,0,0,0,.48.48h0a.47.47,0,0,0,.47-.48h0a.47.47,0,0,0-.47-.47h0A.48.48,0,0,0,280.09,260.15Z" style="fill:#fff"></path><path d="M280.09,258.77h0a.48.48,0,0,0,.48.48h0a.47.47,0,0,0,.47-.48h0a.47.47,0,0,0-.47-.47h0A.48.48,0,0,0,280.09,258.77Z" style="fill:#fff"></path><path d="M280.09,257.39h0a.48.48,0,0,0,.48.48h0a.47.47,0,0,0,.47-.48h0a.47.47,0,0,0-.47-.47h0A.48.48,0,0,0,280.09,257.39Z" style="fill:#263238"></path><path d="M278.6,268.43h0a.47.47,0,0,0,.47.48h0a.48.48,0,0,0,.48-.48h0a.48.48,0,0,0-.48-.47h0A.47.47,0,0,0,278.6,268.43Z" style="fill:#fff"></path><path d="M278.6,267.05h0a.47.47,0,0,0,.47.48h0a.48.48,0,0,0,.48-.48h0a.48.48,0,0,0-.48-.47h0A.47.47,0,0,0,278.6,267.05Z" style="fill:#fff"></path><path d="M278.6,265.67h0a.47.47,0,0,0,.47.48h0a.48.48,0,0,0,.48-.48h0a.48.48,0,0,0-.48-.47h0A.47.47,0,0,0,278.6,265.67Z" style="fill:#263238"></path><path d="M278.6,264.29h0a.47.47,0,0,0,.47.48h0a.48.48,0,0,0,.48-.48h0a.48.48,0,0,0-.48-.47h0A.47.47,0,0,0,278.6,264.29Z" style="fill:#263238"></path><path d="M278.6,262.91h0a.47.47,0,0,0,.47.48h0a.48.48,0,0,0,.48-.48h0a.48.48,0,0,0-.48-.47h0A.47.47,0,0,0,278.6,262.91Z" style="fill:#fff"></path><path d="M278.6,261.53h0a.47.47,0,0,0,.47.48h0a.48.48,0,0,0,.48-.48h0a.48.48,0,0,0-.48-.47h0A.47.47,0,0,0,278.6,261.53Z" style="fill:#263238"></path><path d="M278.6,260.15h0a.47.47,0,0,0,.47.48h0a.48.48,0,0,0,.48-.48h0a.48.48,0,0,0-.48-.47h0A.47.47,0,0,0,278.6,260.15Z" style="fill:#263238"></path><path d="M278.6,258.77h0a.47.47,0,0,0,.47.48h0a.48.48,0,0,0,.48-.48h0a.48.48,0,0,0-.48-.47h0A.47.47,0,0,0,278.6,258.77Z" style="fill:#263238"></path><path d="M278.6,257.39h0a.47.47,0,0,0,.47.48h0a.48.48,0,0,0,.48-.48h0a.48.48,0,0,0-.48-.47h0A.47.47,0,0,0,278.6,257.39Z" style="fill:#fff"></path><path d="M277.1,268.43h0a.47.47,0,0,0,.47.48h0a.47.47,0,0,0,.48-.48h0a.47.47,0,0,0-.48-.47h0A.47.47,0,0,0,277.1,268.43Z" style="fill:#263238"></path><path d="M277.1,267.05h0a.47.47,0,0,0,.47.48h0a.47.47,0,0,0,.48-.48h0a.47.47,0,0,0-.48-.47h0A.47.47,0,0,0,277.1,267.05Z" style="fill:#fff"></path><path d="M277.1,265.67h0a.47.47,0,0,0,.47.48h0a.47.47,0,0,0,.48-.48h0a.47.47,0,0,0-.48-.47h0A.47.47,0,0,0,277.1,265.67Z" style="fill:#263238"></path><path d="M277.1,264.29h0a.47.47,0,0,0,.47.48h0a.47.47,0,0,0,.48-.48h0a.47.47,0,0,0-.48-.47h0A.47.47,0,0,0,277.1,264.29Z" style="fill:#263238"></path><path d="M277.1,262.91h0a.47.47,0,0,0,.47.48h0a.47.47,0,0,0,.48-.48h0a.47.47,0,0,0-.48-.47h0A.47.47,0,0,0,277.1,262.91Z" style="fill:#263238"></path><path d="M277.1,261.53h0a.47.47,0,0,0,.47.48h0a.47.47,0,0,0,.48-.48h0a.47.47,0,0,0-.48-.47h0A.47.47,0,0,0,277.1,261.53Z" style="fill:#fff"></path><path d="M277.1,260.15h0a.47.47,0,0,0,.47.48h0a.47.47,0,0,0,.48-.48h0a.47.47,0,0,0-.48-.47h0A.47.47,0,0,0,277.1,260.15Z" style="fill:#263238"></path><path d="M277.1,258.77h0a.47.47,0,0,0,.47.48h0a.47.47,0,0,0,.48-.48h0a.47.47,0,0,0-.48-.47h0A.47.47,0,0,0,277.1,258.77Z" style="fill:#263238"></path><path d="M277.1,257.39h0a.47.47,0,0,0,.47.48h0a.47.47,0,0,0,.48-.48h0a.47.47,0,0,0-.48-.47h0A.47.47,0,0,0,277.1,257.39Z" style="fill:#263238"></path><rect x="330.18" y="262.26" width="10.53" height="25.51" transform="translate(670.89 550.03) rotate(180)" style="fill:#fff;stroke:#263238;stroke-linecap:round;stroke-linejoin:round"></rect><rect x="331.79" y="284.48" width="1.78" height="1.78" rx="0.5" transform="translate(47.31 618.05) rotate(-90)" style="fill:#263238"></rect><rect x="331.79" y="281.89" width="1.78" height="1.78" rx="0.5" transform="translate(49.9 615.46) rotate(-90)" style="fill:#263238"></rect><rect x="331.79" y="279.3" width="1.78" height="1.78" rx="0.5" transform="translate(52.49 612.87) rotate(-90)" style="fill:#1A1A1A"></rect><rect x="331.79" y="276.71" width="1.78" height="1.78" rx="0.5" transform="translate(55.08 610.28) rotate(-90)" style="fill:#1A1A1A"></rect><rect x="331.79" y="274.12" width="1.78" height="1.78" rx="0.5" transform="translate(57.67 607.69) rotate(-90)" style="fill:#263238"></rect><rect x="331.79" y="271.53" width="1.78" height="1.78" rx="0.5" transform="translate(60.26 605.1) rotate(-90)" style="fill:#263238"></rect><rect x="331.79" y="268.94" width="1.78" height="1.78" rx="0.5" transform="translate(62.85 602.51) rotate(-90)" style="fill:#1A1A1A"></rect><rect x="331.79" y="266.35" width="1.78" height="1.78" rx="0.5" transform="translate(65.44 599.92) rotate(-90)" style="fill:#263238"></rect><rect x="331.79" y="263.76" width="1.78" height="1.78" rx="0.5" transform="translate(68.03 597.33) rotate(-90)" style="fill:#263238"></rect><rect x="334.6" y="284.48" width="1.78" height="1.78" rx="0.5" transform="translate(50.12 620.86) rotate(-90)" style="fill:#263238"></rect><rect x="334.6" y="281.89" width="1.78" height="1.78" rx="0.5" transform="translate(52.71 618.27) rotate(-90)" style="fill:#1A1A1A"></rect><rect x="334.6" y="279.3" width="1.78" height="1.78" rx="0.5" transform="translate(55.3 615.68) rotate(-90)" style="fill:#263238"></rect><rect x="334.6" y="276.71" width="1.78" height="1.78" rx="0.5" transform="translate(57.89 613.09) rotate(-90)" style="fill:#1A1A1A"></rect><rect x="334.6" y="274.12" width="1.78" height="1.78" rx="0.5" transform="translate(60.48 610.5) rotate(-90)" style="fill:#263238"></rect><rect x="334.6" y="271.53" width="1.78" height="1.78" rx="0.5" transform="translate(63.07 607.91) rotate(-90)" style="fill:#1A1A1A"></rect><rect x="334.6" y="268.94" width="1.78" height="1.78" rx="0.5" transform="translate(65.66 605.32) rotate(-90)" style="fill:#1A1A1A"></rect><rect x="334.6" y="266.35" width="1.78" height="1.78" rx="0.5" transform="translate(68.25 602.73) rotate(-90)" style="fill:#1A1A1A"></rect><rect x="334.6" y="263.76" width="1.78" height="1.78" rx="0.5" transform="translate(70.84 600.14) rotate(-90)" style="fill:#1A1A1A"></rect><rect x="337.41" y="284.48" width="1.78" height="1.78" rx="0.5" transform="translate(52.93 623.66) rotate(-90)" style="fill:#1A1A1A"></rect><rect x="337.41" y="281.89" width="1.78" height="1.78" rx="0.5" transform="translate(55.52 621.07) rotate(-90)" style="fill:#263238"></rect><rect x="337.41" y="279.3" width="1.78" height="1.78" rx="0.5" transform="translate(58.11 618.48) rotate(-90)" style="fill:#263238"></rect><rect x="337.41" y="276.71" width="1.78" height="1.78" rx="0.5" transform="translate(60.7 615.9) rotate(-90)" style="fill:#263238"></rect><rect x="337.41" y="274.12" width="1.78" height="1.78" rx="0.5" transform="translate(63.29 613.31) rotate(-90)" style="fill:#263238"></rect><rect x="337.41" y="271.53" width="1.78" height="1.78" rx="0.5" transform="translate(65.88 610.72) rotate(-90)" style="fill:#263238"></rect><rect x="337.41" y="268.94" width="1.78" height="1.78" rx="0.5" transform="translate(68.46 608.13) rotate(-90)" style="fill:#1A1A1A"></rect><rect x="337.41" y="266.35" width="1.78" height="1.78" rx="0.5" transform="translate(71.05 605.54) rotate(-90)" style="fill:#1A1A1A"></rect><rect x="337.41" y="263.76" width="1.78" height="1.78" rx="0.5" transform="translate(73.64 602.95) rotate(-90)" style="fill:#263238"></rect><rect x="322.66" y="274.17" width="5.61" height="13.6" transform="translate(650.93 561.94) rotate(180)" style="fill:#fff;stroke:#263238;stroke-linecap:round;stroke-linejoin:round"></rect><path d="M324.47,286.49h0a.48.48,0,0,1-.48.47h0a.47.47,0,0,1-.47-.47h0A.48.48,0,0,1,324,286h0A.49.49,0,0,1,324.47,286.49Z" style="fill:#263238"></path><path d="M324.47,285.11h0a.48.48,0,0,1-.48.47h0a.47.47,0,0,1-.47-.47h0a.48.48,0,0,1,.47-.48h0A.49.49,0,0,1,324.47,285.11Z" style="fill:#fff"></path><path d="M324.47,283.73h0a.48.48,0,0,1-.48.47h0a.47.47,0,0,1-.47-.47h0a.48.48,0,0,1,.47-.48h0A.49.49,0,0,1,324.47,283.73Z" style="fill:#263238"></path><path d="M324.47,282.35h0a.48.48,0,0,1-.48.47h0a.47.47,0,0,1-.47-.47h0a.48.48,0,0,1,.47-.48h0A.49.49,0,0,1,324.47,282.35Z" style="fill:#263238"></path><path d="M324.47,281h0a.48.48,0,0,1-.48.47h0a.47.47,0,0,1-.47-.47h0a.48.48,0,0,1,.47-.48h0A.49.49,0,0,1,324.47,281Z" style="fill:#fff"></path><path d="M324.47,279.59h0a.48.48,0,0,1-.48.47h0a.47.47,0,0,1-.47-.47h0a.48.48,0,0,1,.47-.48h0A.49.49,0,0,1,324.47,279.59Z" style="fill:#263238"></path><path d="M324.47,278.21h0a.48.48,0,0,1-.48.47h0a.47.47,0,0,1-.47-.47h0a.48.48,0,0,1,.47-.48h0A.49.49,0,0,1,324.47,278.21Z" style="fill:#263238"></path><path d="M324.47,276.83h0a.48.48,0,0,1-.48.47h0a.47.47,0,0,1-.47-.47h0a.48.48,0,0,1,.47-.48h0A.49.49,0,0,1,324.47,276.83Z" style="fill:#263238"></path><path d="M324.47,275.45h0a.48.48,0,0,1-.48.47h0a.47.47,0,0,1-.47-.47h0A.48.48,0,0,1,324,275h0A.49.49,0,0,1,324.47,275.45Z" style="fill:#fff"></path><path d="M326,286.49h0a.47.47,0,0,1-.47.47h0a.48.48,0,0,1-.48-.47h0a.49.49,0,0,1,.48-.48h0A.48.48,0,0,1,326,286.49Z" style="fill:#263238"></path><path d="M326,285.11h0a.47.47,0,0,1-.47.47h0a.48.48,0,0,1-.48-.47h0a.49.49,0,0,1,.48-.48h0A.48.48,0,0,1,326,285.11Z" style="fill:#263238"></path><path d="M326,283.73h0a.47.47,0,0,1-.47.47h0a.48.48,0,0,1-.48-.47h0a.49.49,0,0,1,.48-.48h0A.48.48,0,0,1,326,283.73Z" style="fill:#fff"></path><path d="M326,282.35h0a.47.47,0,0,1-.47.47h0a.48.48,0,0,1-.48-.47h0a.49.49,0,0,1,.48-.48h0A.48.48,0,0,1,326,282.35Z" style="fill:#263238"></path><path d="M326,281h0a.47.47,0,0,1-.47.47h0A.48.48,0,0,1,325,281h0a.49.49,0,0,1,.48-.48h0A.48.48,0,0,1,326,281Z" style="fill:#263238"></path><path d="M326,279.59h0a.47.47,0,0,1-.47.47h0a.48.48,0,0,1-.48-.47h0a.49.49,0,0,1,.48-.48h0A.48.48,0,0,1,326,279.59Z" style="fill:#fff"></path><path d="M326,278.21h0a.47.47,0,0,1-.47.47h0a.48.48,0,0,1-.48-.47h0a.49.49,0,0,1,.48-.48h0A.48.48,0,0,1,326,278.21Z" style="fill:#fff"></path><path d="M326,276.83h0a.47.47,0,0,1-.47.47h0a.48.48,0,0,1-.48-.47h0a.49.49,0,0,1,.48-.48h0A.48.48,0,0,1,326,276.83Z" style="fill:#263238"></path><path d="M326,275.45h0a.47.47,0,0,1-.47.47h0a.48.48,0,0,1-.48-.47h0a.49.49,0,0,1,.48-.48h0A.48.48,0,0,1,326,275.45Z" style="fill:#263238"></path><path d="M327.46,286.49h0a.47.47,0,0,1-.48.47h0a.47.47,0,0,1-.47-.47h0A.48.48,0,0,1,327,286h0A.48.48,0,0,1,327.46,286.49Z" style="fill:#fff"></path><path d="M327.46,285.11h0a.47.47,0,0,1-.48.47h0a.47.47,0,0,1-.47-.47h0a.48.48,0,0,1,.47-.48h0A.48.48,0,0,1,327.46,285.11Z" style="fill:#263238"></path><path d="M327.46,283.73h0a.47.47,0,0,1-.48.47h0a.47.47,0,0,1-.47-.47h0a.48.48,0,0,1,.47-.48h0A.48.48,0,0,1,327.46,283.73Z" style="fill:#263238"></path><path d="M327.46,282.35h0a.47.47,0,0,1-.48.47h0a.47.47,0,0,1-.47-.47h0a.48.48,0,0,1,.47-.48h0A.48.48,0,0,1,327.46,282.35Z" style="fill:#fff"></path><path d="M327.46,281h0a.47.47,0,0,1-.48.47h0a.47.47,0,0,1-.47-.47h0a.48.48,0,0,1,.47-.48h0A.48.48,0,0,1,327.46,281Z" style="fill:#263238"></path><path d="M327.46,279.59h0a.47.47,0,0,1-.48.47h0a.47.47,0,0,1-.47-.47h0a.48.48,0,0,1,.47-.48h0A.48.48,0,0,1,327.46,279.59Z" style="fill:#fff"></path><path d="M327.46,278.21h0a.47.47,0,0,1-.48.47h0a.47.47,0,0,1-.47-.47h0a.48.48,0,0,1,.47-.48h0A.48.48,0,0,1,327.46,278.21Z" style="fill:#263238"></path><path d="M327.46,276.83h0a.47.47,0,0,1-.48.47h0a.47.47,0,0,1-.47-.47h0a.48.48,0,0,1,.47-.48h0A.48.48,0,0,1,327.46,276.83Z" style="fill:#fff"></path><path d="M327.46,275.45h0a.47.47,0,0,1-.48.47h0a.47.47,0,0,1-.47-.47h0A.48.48,0,0,1,327,275h0A.48.48,0,0,1,327.46,275.45Z" style="fill:#fff"></path><rect x="160.41" y="311.37" width="10.53" height="25.51" transform="translate(331.36 648.25) rotate(180)" style="fill:#fff;stroke:#263238;stroke-linecap:round;stroke-linejoin:round"></rect><rect x="162.02" y="333.59" width="1.78" height="1.78" rx="0.5" transform="translate(-171.57 497.39) rotate(-90)" style="fill:#263238"></rect><rect x="162.02" y="331" width="1.78" height="1.78" rx="0.5" transform="translate(-168.98 494.8) rotate(-90)" style="fill:#263238"></rect><rect x="162.02" y="328.41" width="1.78" height="1.78" rx="0.5" transform="translate(-166.39 492.21) rotate(-90)" style="fill:#1A1A1A"></rect><rect x="162.02" y="325.82" width="1.78" height="1.78" rx="0.5" transform="translate(-163.8 489.62) rotate(-90)" style="fill:#1A1A1A"></rect><rect x="162.02" y="323.23" width="1.78" height="1.78" rx="0.5" transform="translate(-161.21 487.03) rotate(-90)" style="fill:#263238"></rect><rect x="162.02" y="320.64" width="1.78" height="1.78" rx="0.5" transform="translate(-158.62 484.44) rotate(-90)" style="fill:#263238"></rect><rect x="162.02" y="318.05" width="1.78" height="1.78" rx="0.5" transform="translate(-156.03 481.86) rotate(-90)" style="fill:#1A1A1A"></rect><rect x="162.02" y="315.46" width="1.78" height="1.78" rx="0.5" transform="translate(-153.44 479.27) rotate(-90)" style="fill:#263238"></rect><rect x="162.02" y="312.87" width="1.78" height="1.78" rx="0.5" transform="translate(-150.85 476.68) rotate(-90)" style="fill:#263238"></rect><rect x="164.83" y="333.59" width="1.78" height="1.78" rx="0.5" transform="translate(-168.76 500.2) rotate(-90)" style="fill:#263238"></rect><rect x="164.83" y="331" width="1.78" height="1.78" rx="0.5" transform="translate(-166.17 497.61) rotate(-90)" style="fill:#1A1A1A"></rect><rect x="164.83" y="328.41" width="1.78" height="1.78" rx="0.5" transform="translate(-163.58 495.02) rotate(-90)" style="fill:#263238"></rect><rect x="164.83" y="325.82" width="1.78" height="1.78" rx="0.5" transform="translate(-160.99 492.43) rotate(-90)" style="fill:#1A1A1A"></rect><rect x="164.83" y="323.23" width="1.78" height="1.78" rx="0.5" transform="translate(-158.4 489.84) rotate(-90)" style="fill:#263238"></rect><rect x="164.83" y="320.64" width="1.78" height="1.78" rx="0.5" transform="translate(-155.81 487.25) rotate(-90)" style="fill:#1A1A1A"></rect><rect x="164.83" y="318.05" width="1.78" height="1.78" rx="0.5" transform="translate(-153.22 484.66) rotate(-90)" style="fill:#1A1A1A"></rect><rect x="164.83" y="315.46" width="1.78" height="1.78" rx="0.5" transform="translate(-150.63 482.07) rotate(-90)" style="fill:#1A1A1A"></rect><rect x="164.83" y="312.87" width="1.78" height="1.78" rx="0.5" transform="translate(-148.04 479.48) rotate(-90)" style="fill:#1A1A1A"></rect><rect x="167.64" y="333.59" width="1.78" height="1.78" rx="0.5" transform="translate(-165.95 503.01) rotate(-90)" style="fill:#1A1A1A"></rect><rect x="167.64" y="331" width="1.78" height="1.78" rx="0.5" transform="translate(-163.36 500.42) rotate(-90)" style="fill:#263238"></rect><rect x="167.64" y="328.41" width="1.78" height="1.78" rx="0.5" transform="translate(-160.77 497.83) rotate(-90)" style="fill:#263238"></rect><rect x="167.64" y="325.82" width="1.78" height="1.78" rx="0.5" transform="translate(-158.18 495.24) rotate(-90)" style="fill:#263238"></rect><rect x="167.64" y="323.23" width="1.78" height="1.78" rx="0.5" transform="translate(-155.59 492.65) rotate(-90)" style="fill:#263238"></rect><rect x="167.64" y="320.64" width="1.78" height="1.78" rx="0.5" transform="translate(-153 490.06) rotate(-90)" style="fill:#263238"></rect><rect x="167.64" y="318.05" width="1.78" height="1.78" rx="0.5" transform="translate(-150.41 487.47) rotate(-90)" style="fill:#1A1A1A"></rect><rect x="167.64" y="315.46" width="1.78" height="1.78" rx="0.5" transform="translate(-147.83 484.88) rotate(-90)" style="fill:#1A1A1A"></rect><rect x="167.64" y="312.87" width="1.78" height="1.78" rx="0.5" transform="translate(-145.24 482.29) rotate(-90)" style="fill:#263238"></rect><rect x="152.89" y="323.28" width="5.61" height="13.6" transform="translate(311.39 660.16) rotate(180)" style="fill:#fff;stroke:#263238;stroke-linecap:round;stroke-linejoin:round"></rect><path d="M154.7,335.6h0a.49.49,0,0,1-.48.48h0a.48.48,0,0,1-.47-.48h0a.47.47,0,0,1,.47-.47h0A.48.48,0,0,1,154.7,335.6Z" style="fill:#263238"></path><path d="M154.7,334.22h0a.49.49,0,0,1-.48.48h0a.48.48,0,0,1-.47-.48h0a.47.47,0,0,1,.47-.47h0A.48.48,0,0,1,154.7,334.22Z" style="fill:#fff"></path><path d="M154.7,332.84h0a.49.49,0,0,1-.48.48h0a.48.48,0,0,1-.47-.48h0a.47.47,0,0,1,.47-.47h0A.48.48,0,0,1,154.7,332.84Z" style="fill:#263238"></path><path d="M154.7,331.46h0a.49.49,0,0,1-.48.48h0a.48.48,0,0,1-.47-.48h0a.47.47,0,0,1,.47-.47h0A.48.48,0,0,1,154.7,331.46Z" style="fill:#263238"></path><path d="M154.7,330.08h0a.49.49,0,0,1-.48.48h0a.48.48,0,0,1-.47-.48h0a.47.47,0,0,1,.47-.47h0A.48.48,0,0,1,154.7,330.08Z" style="fill:#fff"></path><path d="M154.7,328.7h0a.49.49,0,0,1-.48.48h0a.48.48,0,0,1-.47-.48h0a.47.47,0,0,1,.47-.47h0A.48.48,0,0,1,154.7,328.7Z" style="fill:#263238"></path><path d="M154.7,327.32h0a.49.49,0,0,1-.48.48h0a.48.48,0,0,1-.47-.48h0a.47.47,0,0,1,.47-.47h0A.48.48,0,0,1,154.7,327.32Z" style="fill:#263238"></path><path d="M154.7,325.94h0a.49.49,0,0,1-.48.48h0a.48.48,0,0,1-.47-.48h0a.47.47,0,0,1,.47-.47h0A.48.48,0,0,1,154.7,325.94Z" style="fill:#263238"></path><path d="M154.7,324.56h0a.49.49,0,0,1-.48.48h0a.48.48,0,0,1-.47-.48h0a.47.47,0,0,1,.47-.47h0A.48.48,0,0,1,154.7,324.56Z" style="fill:#fff"></path><path d="M156.19,335.6h0a.48.48,0,0,1-.47.48h0a.49.49,0,0,1-.48-.48h0a.48.48,0,0,1,.48-.47h0A.47.47,0,0,1,156.19,335.6Z" style="fill:#263238"></path><path d="M156.19,334.22h0a.48.48,0,0,1-.47.48h0a.49.49,0,0,1-.48-.48h0a.48.48,0,0,1,.48-.47h0A.47.47,0,0,1,156.19,334.22Z" style="fill:#263238"></path><path d="M156.19,332.84h0a.48.48,0,0,1-.47.48h0a.49.49,0,0,1-.48-.48h0a.48.48,0,0,1,.48-.47h0A.47.47,0,0,1,156.19,332.84Z" style="fill:#fff"></path><path d="M156.19,331.46h0a.48.48,0,0,1-.47.48h0a.49.49,0,0,1-.48-.48h0a.48.48,0,0,1,.48-.47h0A.47.47,0,0,1,156.19,331.46Z" style="fill:#263238"></path><path d="M156.19,330.08h0a.48.48,0,0,1-.47.48h0a.49.49,0,0,1-.48-.48h0a.48.48,0,0,1,.48-.47h0A.47.47,0,0,1,156.19,330.08Z" style="fill:#263238"></path><path d="M156.19,328.7h0a.48.48,0,0,1-.47.48h0a.49.49,0,0,1-.48-.48h0a.48.48,0,0,1,.48-.47h0A.47.47,0,0,1,156.19,328.7Z" style="fill:#fff"></path><path d="M156.19,327.32h0a.48.48,0,0,1-.47.48h0a.49.49,0,0,1-.48-.48h0a.48.48,0,0,1,.48-.47h0A.47.47,0,0,1,156.19,327.32Z" style="fill:#fff"></path><path d="M156.19,325.94h0a.48.48,0,0,1-.47.48h0a.49.49,0,0,1-.48-.48h0a.48.48,0,0,1,.48-.47h0A.47.47,0,0,1,156.19,325.94Z" style="fill:#263238"></path><path d="M156.19,324.56h0a.48.48,0,0,1-.47.48h0a.49.49,0,0,1-.48-.48h0a.48.48,0,0,1,.48-.47h0A.47.47,0,0,1,156.19,324.56Z" style="fill:#263238"></path><path d="M157.69,335.6h0a.48.48,0,0,1-.47.48h0a.48.48,0,0,1-.48-.48h0a.47.47,0,0,1,.48-.47h0A.47.47,0,0,1,157.69,335.6Z" style="fill:#fff"></path><path d="M157.69,334.22h0a.48.48,0,0,1-.47.48h0a.48.48,0,0,1-.48-.48h0a.47.47,0,0,1,.48-.47h0A.47.47,0,0,1,157.69,334.22Z" style="fill:#263238"></path><path d="M157.69,332.84h0a.48.48,0,0,1-.47.48h0a.48.48,0,0,1-.48-.48h0a.47.47,0,0,1,.48-.47h0A.47.47,0,0,1,157.69,332.84Z" style="fill:#263238"></path><path d="M157.69,331.46h0a.48.48,0,0,1-.47.48h0a.48.48,0,0,1-.48-.48h0a.47.47,0,0,1,.48-.47h0A.47.47,0,0,1,157.69,331.46Z" style="fill:#fff"></path><path d="M157.69,330.08h0a.48.48,0,0,1-.47.48h0a.48.48,0,0,1-.48-.48h0a.47.47,0,0,1,.48-.47h0A.47.47,0,0,1,157.69,330.08Z" style="fill:#263238"></path><path d="M157.69,328.7h0a.48.48,0,0,1-.47.48h0a.48.48,0,0,1-.48-.48h0a.47.47,0,0,1,.48-.47h0A.47.47,0,0,1,157.69,328.7Z" style="fill:#fff"></path><path d="M157.69,327.32h0a.48.48,0,0,1-.47.48h0a.48.48,0,0,1-.48-.48h0a.47.47,0,0,1,.48-.47h0A.47.47,0,0,1,157.69,327.32Z" style="fill:#263238"></path><path d="M157.69,325.94h0a.48.48,0,0,1-.47.48h0a.48.48,0,0,1-.48-.48h0a.47.47,0,0,1,.48-.47h0A.47.47,0,0,1,157.69,325.94Z" style="fill:#fff"></path><path d="M157.69,324.56h0a.48.48,0,0,1-.47.48h0a.48.48,0,0,1-.48-.48h0a.47.47,0,0,1,.48-.47h0A.47.47,0,0,1,157.69,324.56Z" style="fill:#fff"></path></g><g id="freepik--Cars--inject-4"><path d="M110.05,312.5l-11.13-5.73,10-32.34,12.26,2.07,1.94-6.28,2.62-4L138,270l-.87,2.83a5.75,5.75,0,1,0-3.4,11l-6.37,20.59a5.75,5.75,0,1,0-3.4,11l-.53,1.71-13.5-4.18Z" style="fill:#263238;stroke:#263238;stroke-linecap:round;stroke-linejoin:round"></path><polygon points="123.13 271.18 118.34 286.68 107.85 283.06 110.44 274.69 121.19 276.5 122.86 271.09 123.13 271.18" style="fill:#757575;stroke:#263238;stroke-linecap:round;stroke-linejoin:round"></polygon><path d="M134.06,282.72a4.6,4.6,0,1,0-3-5.76A4.6,4.6,0,0,0,134.06,282.72Z" style="fill:#263238;stroke:#263238;stroke-linecap:round;stroke-linejoin:round"></path><path d="M134.74,280.52a2.3,2.3,0,1,0-1.52-2.88A2.28,2.28,0,0,0,134.74,280.52Z" style="fill:#1A1A1A;stroke:#263238;stroke-linecap:round;stroke-linejoin:round"></path><path d="M124.29,314.29a4.6,4.6,0,1,0-3-5.75A4.58,4.58,0,0,0,124.29,314.29Z" style="fill:#263238;stroke:#263238;stroke-linecap:round;stroke-linejoin:round"></path><path d="M125,312.1a2.3,2.3,0,1,0-1.52-2.88A2.32,2.32,0,0,0,125,312.1Z" style="fill:#1A1A1A;stroke:#263238;stroke-linecap:round;stroke-linejoin:round"></path><path d="M120.15,314.78a7.34,7.34,0,0,1,3.72-12l6-19.55a7.34,7.34,0,0,1,3.72-12l.71-2.31L138,270l-.87,2.83a5.75,5.75,0,1,0-3.4,11l-6.37,20.59a5.75,5.75,0,1,0-3.4,11l-.53,1.71L119.78,316Z" style="fill:#1A1A1A;stroke:#263238;stroke-linecap:round;stroke-linejoin:round"></path><polygon points="120.15 278.74 120.46 277.74 119.83 277.55 119.81 276.96 118.77 277.22 117.08 276.69 116.78 277.7 120.15 278.74" style="fill:#263238;stroke:#263238;stroke-linecap:round;stroke-linejoin:round"></polygon><polygon points="104.55 293.74 107.32 284.77 117.85 288.27 114.62 298.7 104.55 293.74" style="fill:#757575;stroke:#263238;stroke-linecap:round;stroke-linejoin:round"></polygon><polygon points="114.23 299.96 110.72 311.3 100.81 305.81 104.16 295 114.23 299.96" style="fill:#757575;stroke:#263238;stroke-linecap:round;stroke-linejoin:round"></polygon><path d="M129.92,283.21l-2,6.43-9.59-3,3.12-10.09,6.62,2A7.35,7.35,0,0,0,129.92,283.21Z" style="fill:none;stroke:#7f7f7f;stroke-linecap:round;stroke-linejoin:round"></path><polygon points="117.81 288.4 114.69 298.49 124.27 301.45 126.27 295.02 127.4 291.36 117.81 288.4" style="fill:none;stroke:#7f7f7f;stroke-linecap:round;stroke-linejoin:round"></polygon><path d="M371.27,258.24l13.16-3.94,12.83,25.44L386,287.44l3.25,6.44,1,5.15-12.55,6.34-1.46-2.9a6.31,6.31,0,1,0-5.69-11.27l-6.74-13.39a6.31,6.31,0,0,0-5.69-11.27l-.88-1.75,13.85-7Z" style="fill:#1A1A1A;stroke:#263238;stroke-linecap:round;stroke-linejoin:round"></path><polygon points="371.66 259.7 379.67 275.6 390.65 270.35 383.67 256.5 371.66 259.7" style="fill:#1A1A1A"></polygon><g style="clip-path:url(#freepik--clip-path-3--inject-4)"><polygon points="371.66 259.7 379.67 275.6 390.65 270.35 383.67 256.5 371.66 259.7" style="fill:#fff;opacity:0.7000000000000001"></polygon></g><polygon points="371.66 259.7 379.67 275.6 390.65 270.35 383.67 256.5 371.66 259.7" style="fill:none;stroke:#263238;stroke-linecap:round;stroke-linejoin:round"></polygon><polygon points="388.51 293.13 380.5 277.23 391.53 272.1 395.87 280.69 385.99 287.44 388.79 292.99 388.51 293.13" style="fill:#1A1A1A"></polygon><g style="clip-path:url(#freepik--clip-path-4--inject-4)"><polygon points="388.51 293.13 380.5 277.23 391.53 272.1 395.87 280.69 385.99 287.44 388.79 292.99 388.51 293.13" style="fill:#fff;opacity:0.7000000000000001"></polygon></g><polygon points="388.51 293.13 380.5 277.23 391.53 272.1 395.87 280.69 385.99 287.44 388.79 292.99 388.51 293.13" style="fill:none;stroke:#263238;stroke-linecap:round;stroke-linejoin:round"></polygon><path d="M371.09,292.32a5.05,5.05,0,1,0,6.78,2.24A5,5,0,0,0,371.09,292.32Z" style="fill:#263238;stroke:#263238;stroke-linecap:round;stroke-linejoin:round"></path><path d="M372.23,294.58a2.52,2.52,0,1,0,3.39,1.12A2.52,2.52,0,0,0,372.23,294.58Z" style="fill:#1A1A1A;stroke:#263238;stroke-linecap:round;stroke-linejoin:round"></path><path d="M358.66,267.67a5.05,5.05,0,1,0,6.78,2.24A5,5,0,0,0,358.66,267.67Z" style="fill:#263238;stroke:#263238;stroke-linecap:round;stroke-linejoin:round"></path><path d="M359.8,269.92a2.52,2.52,0,1,0,3.39,1.12A2.52,2.52,0,0,0,359.8,269.92Z" style="fill:#1A1A1A;stroke:#263238;stroke-linecap:round;stroke-linejoin:round"></path><rect x="364.46" y="252.67" width="4.33" height="9.92" rx="1.68" transform="translate(301.63 700.98) rotate(-116.76)" style="fill:#263238;stroke:#263238;stroke-linecap:round;stroke-linejoin:round"></rect><rect x="393.43" y="269.81" width="10.84" height="4.15" rx="1.61" transform="translate(335.62 750.42) rotate(-116.75)" style="fill:#1A1A1A;stroke:#263238;stroke-linecap:round;stroke-linejoin:round"></rect><rect x="397.13" y="267.94" width="10.84" height="4.15" rx="1.61" transform="translate(342.66 751.02) rotate(-116.75)" style="fill:#1A1A1A;stroke:#263238;stroke-linecap:round;stroke-linejoin:round"></rect><rect x="393.79" y="257.49" width="10.84" height="4.15" rx="1.61" transform="translate(347.14 732.88) rotate(-116.75)" style="fill:#1A1A1A"></rect><g style="clip-path:url(#freepik--clip-path-5--inject-4)"><rect x="393.79" y="257.49" width="10.84" height="4.15" rx="1.61" transform="translate(347.14 732.88) rotate(-116.75)" style="fill:#fff;opacity:0.5"></rect></g><rect x="393.79" y="257.49" width="10.84" height="4.15" rx="1.61" transform="translate(347.14 732.88) rotate(-116.75)" style="fill:none;stroke:#263238;stroke-linecap:round;stroke-linejoin:round"></rect><rect x="386.06" y="256.88" width="15.33" height="5.87" rx="1.9" transform="translate(338.98 728.34) rotate(-116.76)" style="fill:#1A1A1A;stroke:#263238;stroke-linecap:round;stroke-linejoin:round"></rect><polyline points="396.11 273.86 397.23 273.29 403.34 266.98" style="fill:none;stroke:#263238;stroke-linecap:round;stroke-linejoin:round"></polyline><polyline points="405.75 271.76 395.43 269.7 394.3 270.27" style="fill:none;stroke:#263238;stroke-linecap:round;stroke-linejoin:round"></polyline><polyline points="400.05 256.62 393.58 266.05 392.45 266.61" style="fill:none;stroke:#263238;stroke-linecap:round;stroke-linejoin:round"></polyline><polyline points="402.38 261.24 389.55 258.05 388.42 258.62" style="fill:none;stroke:#263238;stroke-linecap:round;stroke-linejoin:round"></polyline><path d="M374,288.79l-3.33-6.6,9.84-5,5.21,10.35L378.93,291A8.07,8.07,0,0,0,374,288.79Z" style="fill:none;stroke:#263238;stroke-linecap:round;stroke-linejoin:round"></path><polygon points="385.11 284.88 385.63 285.91 386.27 285.58 386.74 286.02 387.36 285.03 389.09 284.16 388.57 283.13 385.11 284.88" style="fill:#1A1A1A;stroke:#263238;stroke-linecap:round;stroke-linejoin:round"></polygon><path d="M361.56,264.13a8.06,8.06,0,0,1,6.21,12.33L374,288.79a8.05,8.05,0,0,1,6.21,12.32l1.2,2.37-3.73,1.89-1.46-2.9a6.31,6.31,0,1,0-5.69-11.27l-6.74-13.39a6.31,6.31,0,0,0-5.69-11.27l-.88-1.75,3.73-1.88Z" style="fill:#757575;stroke:#263238;stroke-linecap:round;stroke-linejoin:round"></path><path d="M386.87,252.74l13.12,26a.63.63,0,1,1-1.12.57l-1.75-3.46-1.45.73-.44-.88,1.45-.74-8.75-17.34-1.45.73-.45-.89,1.45-.73-1.73-3.44a.63.63,0,0,1,.28-.85A.62.62,0,0,1,386.87,252.74Z" style="fill:#757575;stroke:#263238;stroke-linecap:round;stroke-linejoin:round"></path></g><g id="freepik--Cruise--inject-4"><rect x="214.64" y="346.14" width="5.22" height="11.45" style="fill:#263238;stroke:#263238;stroke-miterlimit:10"></rect><rect x="214.64" y="349.83" width="5.22" height="2.46" style="fill:#fff;stroke:#263238;stroke-linecap:round;stroke-linejoin:round"></rect><path d="M197.45,379.21h36.46a4,4,0,0,0,3.85-2.86L241,365.56H191.17l2.37,10.52A4,4,0,0,0,197.45,379.21Z" style="fill:#bfbfbf;stroke:#263238;stroke-miterlimit:10"></path><polygon points="231.52 354.98 196.13 354.98 192.65 365.56 235 365.56 231.52 354.98" style="fill:#1A1A1A;stroke:#263238;stroke-linecap:round;stroke-linejoin:round"></polygon><rect x="228.57" y="356.39" width="1.7" height="1.7" rx="0.5" transform="translate(458.83 714.48) rotate(180)" style="fill:#263238"></rect><rect x="226.11" y="356.39" width="1.7" height="1.7" rx="0.5" transform="translate(453.91 714.48) rotate(180)" style="fill:#263238"></rect><rect x="223.64" y="356.39" width="1.7" height="1.7" rx="0.5" transform="translate(448.98 714.48) rotate(180)" style="fill:#263238"></rect><rect x="221.18" y="356.39" width="1.7" height="1.7" rx="0.5" transform="translate(444.05 714.48) rotate(180)" style="fill:#263238"></rect><rect x="218.72" y="356.39" width="1.7" height="1.7" rx="0.5" transform="translate(439.13 714.48) rotate(180)" style="fill:#263238"></rect><rect x="216.25" y="356.39" width="1.7" height="1.7" rx="0.5" transform="translate(434.2 714.48) rotate(180)" style="fill:#263238"></rect><rect x="213.79" y="356.39" width="1.7" height="1.7" rx="0.5" transform="translate(429.27 714.48) rotate(180)" style="fill:#263238"></rect><rect x="211.33" y="356.39" width="1.7" height="1.7" rx="0.5" transform="translate(424.35 714.48) rotate(180)" style="fill:#263238"></rect><rect x="208.86" y="356.39" width="1.7" height="1.7" rx="0.5" transform="translate(419.42 714.48) rotate(180)" style="fill:#1A1A1A"></rect><rect x="206.4" y="356.39" width="1.7" height="1.7" rx="0.5" transform="translate(414.49 714.48) rotate(180)" style="fill:#263238"></rect><rect x="203.94" y="356.39" width="1.7" height="1.7" rx="0.5" transform="translate(409.57 714.48) rotate(180)" style="fill:#263238"></rect><rect x="201.47" y="356.39" width="1.7" height="1.7" rx="0.5" transform="translate(404.64 714.48) rotate(180)" style="fill:#263238"></rect><rect x="199.01" y="356.39" width="1.7" height="1.7" rx="0.5" transform="translate(399.71 714.48) rotate(180)" style="fill:#263238"></rect><rect x="196.54" y="356.39" width="1.7" height="1.7" rx="0.5" transform="translate(394.79 714.48) rotate(180)" style="fill:#263238"></rect><rect x="228.57" y="359.06" width="1.7" height="1.7" rx="0.5" transform="translate(458.83 719.82) rotate(180)" style="fill:#1A1A1A"></rect><rect x="226.11" y="359.06" width="1.7" height="1.7" rx="0.5" transform="translate(453.91 719.82) rotate(180)" style="fill:#1A1A1A"></rect><rect x="223.64" y="359.06" width="1.7" height="1.7" rx="0.5" transform="translate(448.98 719.82) rotate(180)" style="fill:#1A1A1A"></rect><rect x="221.18" y="359.06" width="1.7" height="1.7" rx="0.5" transform="translate(444.05 719.82) rotate(180)" style="fill:#263238"></rect><rect x="218.72" y="359.06" width="1.7" height="1.7" rx="0.5" transform="translate(439.13 719.82) rotate(180)" style="fill:#263238"></rect><rect x="216.25" y="359.06" width="1.7" height="1.7" rx="0.5" transform="translate(434.2 719.82) rotate(180)" style="fill:#1A1A1A"></rect><rect x="213.79" y="359.06" width="1.7" height="1.7" rx="0.5" transform="translate(429.27 719.82) rotate(180)" style="fill:#263238"></rect><rect x="211.33" y="359.06" width="1.7" height="1.7" rx="0.5" transform="translate(424.35 719.82) rotate(180)" style="fill:#1A1A1A"></rect><rect x="208.86" y="359.06" width="1.7" height="1.7" rx="0.5" transform="translate(419.42 719.82) rotate(180)" style="fill:#263238"></rect><rect x="206.4" y="359.06" width="1.7" height="1.7" rx="0.5" transform="translate(414.49 719.82) rotate(180)" style="fill:#1A1A1A"></rect><rect x="203.94" y="359.06" width="1.7" height="1.7" rx="0.5" transform="translate(409.57 719.82) rotate(180)" style="fill:#263238"></rect><rect x="201.47" y="359.06" width="1.7" height="1.7" rx="0.5" transform="translate(404.64 719.82) rotate(180)" style="fill:#263238"></rect><rect x="199.01" y="359.06" width="1.7" height="1.7" rx="0.5" transform="translate(399.71 719.82) rotate(180)" style="fill:#263238"></rect><rect x="196.54" y="359.06" width="1.7" height="1.7" rx="0.5" transform="translate(394.79 719.82) rotate(180)" style="fill:#1A1A1A"></rect><rect x="228.57" y="361.73" width="1.7" height="1.7" rx="0.5" transform="translate(458.83 725.16) rotate(180)" style="fill:#263238"></rect><rect x="226.11" y="361.73" width="1.7" height="1.7" rx="0.5" transform="translate(453.91 725.16) rotate(180)" style="fill:#263238"></rect><rect x="223.64" y="361.73" width="1.7" height="1.7" rx="0.5" transform="translate(448.98 725.16) rotate(180)" style="fill:#263238"></rect><rect x="221.18" y="361.73" width="1.7" height="1.7" rx="0.5" transform="translate(444.05 725.16) rotate(180)" style="fill:#1A1A1A"></rect><rect x="218.72" y="361.73" width="1.7" height="1.7" rx="0.5" transform="translate(439.13 725.16) rotate(180)" style="fill:#263238"></rect><rect x="216.25" y="361.73" width="1.7" height="1.7" rx="0.5" transform="translate(434.2 725.16) rotate(180)" style="fill:#263238"></rect><rect x="213.79" y="361.73" width="1.7" height="1.7" rx="0.5" transform="translate(429.27 725.16) rotate(180)" style="fill:#263238"></rect><rect x="211.33" y="361.73" width="1.7" height="1.7" rx="0.5" transform="translate(424.35 725.16) rotate(180)" style="fill:#263238"></rect><rect x="208.86" y="361.73" width="1.7" height="1.7" rx="0.5" transform="translate(419.42 725.16) rotate(180)" style="fill:#263238"></rect><rect x="206.4" y="361.73" width="1.7" height="1.7" rx="0.5" transform="translate(414.49 725.16) rotate(180)" style="fill:#263238"></rect><rect x="203.94" y="361.73" width="1.7" height="1.7" rx="0.5" transform="translate(409.57 725.16) rotate(180)" style="fill:#1A1A1A"></rect><rect x="201.47" y="361.73" width="1.7" height="1.7" rx="0.5" transform="translate(404.64 725.16) rotate(180)" style="fill:#263238"></rect><rect x="199.01" y="361.73" width="1.7" height="1.7" rx="0.5" transform="translate(399.71 725.16) rotate(180)" style="fill:#263238"></rect><rect x="196.54" y="361.73" width="1.7" height="1.7" rx="0.5" transform="translate(394.79 725.16) rotate(180)" style="fill:#263238"></rect><path d="M239.88,379.21s3.84-12.28-3.41-2.13c0,0-1.36-6.58-3.33-.94,0,0-5.63-1.62-2.13,2.39,0,0-6.07-2.22-4.06-.08,0,0-4.92-.77-4.92.76S239.34,381.21,239.88,379.21Z" style="fill:#fff;stroke:#263238;stroke-linecap:round;stroke-linejoin:round"></path><path d="M215.78,339.27a3.55,3.55,0,0,0-5.29-1.46,3.74,3.74,0,0,0-6.33-.14c-.84,1.28-.83,2.91-1.23,4.38s-1.69,3-3.18,2.67c2.45.09,13.32.07,17.84,0,1.62,0,2.66-1.1,2.46-3.14a3.31,3.31,0,0,0-1.53-2.47C217.65,338.59,215.59,338.75,215.78,339.27Z" style="fill:#fff;stroke:#263238;stroke-linecap:round;stroke-linejoin:round"></path></g><g id="freepik--air-balloons--inject-4"><path d="M290.13,241s-.39,1.19,12,5.28,12.69,2.88,12.69,2.88" style="fill:none;stroke:#263238;stroke-linecap:round;stroke-linejoin:round"></path><path d="M306.55,232.76A13,13,0,0,0,290.11,241l0,0s-.39,1.19,12,5.28,12.69,2.88,12.69,2.88l0,0A13,13,0,0,0,306.55,232.76Z" style="fill:#263238"></path><path d="M306.55,232.76A13,13,0,0,0,290.11,241l0,0s-.39,1.19,12,5.28,12.69,2.88,12.69,2.88l0,0A13,13,0,0,0,306.55,232.76Z" style="fill:none;stroke:#263238;stroke-linecap:round;stroke-linejoin:round"></path><path d="M314.78,249.19s-.34,1.21-12.69-2.88-12-5.28-12-5.28l0,0v0c-1.82,5.49,2.46,9.54,4.65,14.57a8.11,8.11,0,0,1,.15,4.13l4.89,1.62a8.1,8.1,0,0,1,2.59-3.22c4.76-2.73,10.61-3.43,12.43-8.92v0Z" style="fill:#1A1A1A;stroke:#263238;stroke-linecap:round;stroke-linejoin:round"></path><path d="M306.55,232.76c-3-1-7.19,3.75-9.45,10.58-.13.38-.24.74-.33,1.1,1.44.54,3.19,1.16,5.32,1.87s3.86,1.24,5.32,1.66c.14-.35.27-.7.4-1.09C310.07,240.06,309.5,233.74,306.55,232.76Z" style="fill:#1A1A1A;stroke:#263238;stroke-linecap:round;stroke-linejoin:round"></path><path d="M302.09,246.31c-2.13-.71-3.88-1.33-5.32-1.87-1.3,4.82-.07,7.79.14,11.87a16.26,16.26,0,0,1-.62,3.87l2.11.7a16.4,16.4,0,0,1,1.82-3.48c2.6-3.14,5.36-4.79,7.19-9.43C306,247.55,304.2,247,302.09,246.31Z" style="fill:#fff"></path><path d="M302.09,246.31c-2.13-.71-3.88-1.33-5.32-1.87-1.3,4.82-.07,7.79.14,11.87a16.26,16.26,0,0,1-.62,3.87l2.11.7a16.4,16.4,0,0,1,1.82-3.48c2.6-3.14,5.36-4.79,7.19-9.43C306,247.55,304.2,247,302.09,246.31Z" style="fill:none;stroke:#263238;stroke-linecap:round;stroke-linejoin:round"></path><path d="M297.34,270.6l-6-2a1.53,1.53,0,0,1-.91-2.1l1.59-3.45,8.09,2.67-.78,3.73A1.54,1.54,0,0,1,297.34,270.6Z" style="fill:#1A1A1A;stroke:#263238;stroke-linecap:round;stroke-linejoin:round"></path><rect x="290.93" y="263.98" width="10.27" height="0.84" transform="translate(98.17 -79.69) rotate(18.33)" style="fill:#fff;stroke:#263238;stroke-linecap:round;stroke-linejoin:round"></rect><line x1="291.74" y1="262.52" x2="289.71" y2="244.53" style="fill:none;stroke:#263238;stroke-linecap:round;stroke-linejoin:round"></line><line x1="300.66" y1="265.48" x2="313.02" y2="252.26" style="fill:none;stroke:#263238;stroke-linecap:round;stroke-linejoin:round"></line><path d="M101.27,209.82s1.21.79,9.38-11.73,6.92-13.24,6.92-13.24" style="fill:none;stroke:#263238;stroke-linecap:round;stroke-linejoin:round"></path><path d="M96.9,189.17a15,15,0,0,0,4.33,20.67l0,0s1.21.79,9.38-11.73,6.92-13.24,6.92-13.24v0A15,15,0,0,0,96.9,189.17Z" style="fill:#263238"></path><path d="M96.9,189.17a15,15,0,0,0,4.33,20.67l0,0s1.21.79,9.38-11.73,6.92-13.24,6.92-13.24v0A15,15,0,0,0,96.9,189.17Z" style="fill:none;stroke:#263238;stroke-linecap:round;stroke-linejoin:round"></path><path d="M117.57,184.85s1.24.73-6.92,13.24-9.38,11.73-9.38,11.73l0,0,0,0c5.56,3.62,11.32.07,17.55-.89a9.29,9.29,0,0,1,4.63,1l3.23-4.95a9.36,9.36,0,0,1-2.82-3.83c-1.63-6.08-.69-12.78-6.25-16.41l0,0Z" style="fill:#1A1A1A;stroke:#263238;stroke-linecap:round;stroke-linejoin:round"></path><path d="M96.9,189.17c-2,3,2.07,9.08,9,13.6.38.25.76.47,1.13.69,1-1.45,2.22-3.2,3.64-5.37s2.5-3.92,3.4-5.42c-.34-.25-.7-.51-1.09-.76C106.05,187.4,98.86,186.17,96.9,189.17Z" style="fill:#1A1A1A;stroke:#263238;stroke-linecap:round;stroke-linejoin:round"></path><path d="M110.65,198.09c-1.42,2.17-2.61,3.92-3.64,5.37,5,2.85,8.63,2.35,13.22,3.32a18.63,18.63,0,0,1,4.11,1.82l1.4-2.14a18.37,18.37,0,0,1-3.32-3c-2.74-3.81-3.76-7.36-8.37-10.76C113.15,194.17,112,196,110.65,198.09Z" style="fill:#fff"></path><path d="M110.65,198.09c-1.42,2.17-2.61,3.92-3.64,5.37,5,2.85,8.63,2.35,13.22,3.32a18.63,18.63,0,0,1,4.11,1.82l1.4-2.14a18.37,18.37,0,0,1-3.32-3c-2.74-3.81-3.76-7.36-8.37-10.76C113.15,194.17,112,196,110.65,198.09Z" style="fill:none;stroke:#263238;stroke-linecap:round;stroke-linejoin:round"></path><path d="M136.22,210.49l-4,6.08a1.76,1.76,0,0,1-2.6.4l-3.36-2.79,5.34-8.19,3.91,2A1.76,1.76,0,0,1,136.22,210.49Z" style="fill:#1A1A1A;stroke:#263238;stroke-linecap:round;stroke-linejoin:round"></path><rect x="123.07" y="209.61" width="11.79" height="0.96" transform="translate(-117.46 203.3) rotate(-56.88)" style="fill:#fff;stroke:#263238;stroke-linecap:round;stroke-linejoin:round"></rect><line x1="125.61" y1="214.35" x2="105.04" y2="211.32" style="fill:none;stroke:#263238;stroke-linecap:round;stroke-linejoin:round"></line><line x1="131.51" y1="205.31" x2="120.46" y2="187.7" style="fill:none;stroke:#263238;stroke-linecap:round;stroke-linejoin:round"></line></g><g id="freepik--Clouds--inject-4"><path d="M340,145.84a20.37,20.37,0,0,1,27.41,2.64A13.62,13.62,0,0,1,384,167.58a16.77,16.77,0,0,1-20.64,26.3l-36.67-24.36A13.62,13.62,0,0,1,340,145.84Z" style="fill:#1A1A1A"></path><path d="M340,145.84a20.37,20.37,0,0,1,27.41,2.64A13.62,13.62,0,0,1,384,167.58a16.77,16.77,0,0,1-20.64,26.3l-36.67-24.36A13.62,13.62,0,0,1,340,145.84Z" style="fill:#fff;opacity:0.9"></path><path d="M386.3,168.51a16.77,16.77,0,0,1-20.64,26.31" style="fill:none;stroke:#263238;stroke-linecap:round;stroke-linejoin:round"></path><path d="M365.85,146.07a20.25,20.25,0,0,1,3.88,3.35,13.62,13.62,0,0,1,17.51,16.75" style="fill:none;stroke:#263238;stroke-linecap:round;stroke-linejoin:round"></path><path d="M327.92,148.54a13.64,13.64,0,0,1,14.39-1.76,20.37,20.37,0,0,1,21-2.14" style="fill:none;stroke:#263238;stroke-linecap:round;stroke-linejoin:round"></path><path d="M357.76,189.57,329,170.46a13.64,13.64,0,0,1-3.81-18.89" style="fill:none;stroke:#263238;stroke-linecap:round;stroke-linejoin:round"></path><path d="M362.19,192.52l-1.4-.93" style="fill:none;stroke:#263238;stroke-linecap:round;stroke-linejoin:round"></path><path d="M134.94,132.71a14.69,14.69,0,0,0-1-1.54,13.8,13.8,0,0,0-23.67,14l-.21.13a11.23,11.23,0,0,0-4.54,10.56,11.24,11.24,0,1,0,7.93,20.26l34.36-25a11.23,11.23,0,0,0-12.9-18.39Z" style="fill:#1A1A1A"></path><path d="M134.94,132.71a14.69,14.69,0,0,0-1-1.54,13.8,13.8,0,0,0-23.67,14l-.21.13a11.23,11.23,0,0,0-4.54,10.56,11.24,11.24,0,1,0,7.93,20.26l34.36-25a11.23,11.23,0,0,0-12.9-18.39Z" style="fill:#fff;opacity:0.9"></path><path d="M111.21,129.52a13.82,13.82,0,0,0-3,15.85l-.21.14a11.26,11.26,0,0,0-4.54,10.56,11.11,11.11,0,0,0-5.28,2.07" style="fill:none;stroke:#263238;stroke-linecap:round;stroke-linejoin:round"></path><path d="M130.84,130.17a13.81,13.81,0,0,0-18.25-1.79" style="fill:none;stroke:#263238;stroke-linecap:round;stroke-linejoin:round"></path><path d="M145.74,151.36A11.24,11.24,0,0,0,132.83,133" style="fill:none;stroke:#263238;stroke-linecap:round;stroke-linejoin:round"></path><path d="M141.06,154.76l3.24-2.36" style="fill:none;stroke:#263238;stroke-linecap:round;stroke-linejoin:round"></path><path d="M96.69,159.42a11.24,11.24,0,0,0,14.69,16.91l28.12-20.44" style="fill:none;stroke:#263238;stroke-linecap:round;stroke-linejoin:round"></path><path d="M405.14,241.07a9.27,9.27,0,0,0,1-.47,8.54,8.54,0,0,0-6.78-15.6.61.61,0,0,1-.07-.14,7,7,0,0,0-6.15-3.58,6.86,6.86,0,0,0-.87-3.4,7,7,0,0,0-12.17,6.75l12.75,23a7,7,0,0,0,12.27-6.54Z" style="fill:#1A1A1A"></path><path d="M405.14,241.07a9.27,9.27,0,0,0,1-.47,8.54,8.54,0,0,0-6.78-15.6.61.61,0,0,1-.07-.14,7,7,0,0,0-6.15-3.58,6.86,6.86,0,0,0-.87-3.4,7,7,0,0,0-12.17,6.75l12.75,23a7,7,0,0,0,12.27-6.54Z" style="fill:#fff;opacity:0.9"></path><path d="M409.23,225.8a8.55,8.55,0,0,0-9.51-3.05c0-.05,0-.09-.07-.14a7,7,0,0,0-6.14-3.59,7,7,0,0,0-.87-3.39" style="fill:none;stroke:#263238;stroke-linecap:round;stroke-linejoin:round"></path><path d="M407.35,237.81a8.56,8.56,0,0,0,2.48-11.08" style="fill:none;stroke:#263238;stroke-linecap:round;stroke-linejoin:round"></path><path d="M393.21,245.36a7,7,0,0,0,12.27-6.54" style="fill:none;stroke:#263238;stroke-linecap:round;stroke-linejoin:round"></path><path d="M391.48,242.23l1.2,2.17" style="fill:none;stroke:#263238;stroke-linecap:round;stroke-linejoin:round"></path><path d="M392,214.62a7,7,0,0,0-11.49,7.75c1,1.78,6.92,12.48,10.43,18.82" style="fill:none;stroke:#263238;stroke-linecap:round;stroke-linejoin:round"></path><path d="M102.88,212.4a8.54,8.54,0,0,0-10.75,13.26c0,.05-.06.09-.08.14a7,7,0,0,0,.12,7.11,7,7,0,1,0,9.64,9.41c1.3-2.3,11.18-19.61,13-22.83a7,7,0,0,0-12-7.09Z" style="fill:#1A1A1A"></path><path d="M102.88,212.4a8.54,8.54,0,0,0-10.75,13.26c0,.05-.06.09-.08.14a7,7,0,0,0,.12,7.11,7,7,0,1,0,9.64,9.41c1.3-2.3,11.18-19.61,13-22.83a7,7,0,0,0-12-7.09Z" style="fill:#fff;opacity:0.9"></path><path d="M87.7,216.83A8.54,8.54,0,0,0,90,226.54l-.09.13a7,7,0,0,0,.13,7.11,6.94,6.94,0,0,0-2.45,2.51" style="fill:none;stroke:#263238;stroke-linecap:round;stroke-linejoin:round"></path><path d="M98.93,212.2a8.55,8.55,0,0,0-10.75,3.63" style="fill:none;stroke:#263238;stroke-linecap:round;stroke-linejoin:round"></path><path d="M112.73,220.36a7,7,0,0,0-12-7.09" style="fill:none;stroke:#263238;stroke-linecap:round;stroke-linejoin:round"></path><path d="M111,223.47l1.23-2.15" style="fill:none;stroke:#263238;stroke-linecap:round;stroke-linejoin:round"></path><path d="M87.11,237.39a7,7,0,0,0,12.59,5.8l10.67-18.68" style="fill:none;stroke:#263238;stroke-linecap:round;stroke-linejoin:round"></path><path d="M143,439.06a16.29,16.29,0,0,1-20.72-7.5,10.89,10.89,0,0,1-9-18.09,13.42,13.42,0,0,1,21.23-16.28L158,423.36a10.9,10.9,0,0,1-15,15.7Z" style="fill:#1A1A1A"></path><path d="M143,439.06a16.29,16.29,0,0,1-20.72-7.5,10.89,10.89,0,0,1-9-18.09,13.42,13.42,0,0,1,21.23-16.28L158,423.36a10.9,10.9,0,0,1-15,15.7Z" style="fill:#fff;opacity:0.9"></path><path d="M111.64,412.28A13.42,13.42,0,0,1,132.87,396" style="fill:none;stroke:#263238;stroke-linecap:round;stroke-linejoin:round"></path><path d="M123,433.75a16.43,16.43,0,0,1-2.34-3.37,10.9,10.9,0,0,1-10.24-16.47" style="fill:none;stroke:#263238;stroke-linecap:round;stroke-linejoin:round"></path><path d="M152.9,439.38a10.91,10.91,0,0,1-11.5-1.5,16.33,16.33,0,0,1-16.71-2.52" style="fill:none;stroke:#263238;stroke-linecap:round;stroke-linejoin:round"></path><path d="M137.94,401.64l18.5,20.54a10.89,10.89,0,0,1-.81,15.39" style="fill:none;stroke:#263238;stroke-linecap:round;stroke-linejoin:round"></path><path d="M135.1,398.48l.9,1" style="fill:none;stroke:#263238;stroke-linecap:round;stroke-linejoin:round"></path><path d="M357.08,446.92a12.08,12.08,0,0,0,.92,1.14,11,11,0,0,0,17.49-13.32l.15-.13a9,9,0,0,0,2.61-8.81A9,9,0,1,0,370,410.46c-2.51,2.31-21.42,19.81-24.94,23.07a9,9,0,0,0,12,13.39Z" style="fill:#1A1A1A"></path><path d="M357.08,446.92a12.08,12.08,0,0,0,.92,1.14,11,11,0,0,0,17.49-13.32l.15-.13a9,9,0,0,0,2.61-8.81A9,9,0,1,0,370,410.46c-2.51,2.31-21.42,19.81-24.94,23.07a9,9,0,0,0,12,13.39Z" style="fill:#fff;opacity:0.9"></path><path d="M376.24,447.22a11.07,11.07,0,0,0,.9-12.88l.15-.13a9,9,0,0,0,2.61-8.82,8.87,8.87,0,0,0,4-2.13" style="fill:none;stroke:#263238;stroke-linecap:round;stroke-linejoin:round"></path><path d="M360.58,448.55a11.05,11.05,0,0,0,14.67-.29" style="fill:none;stroke:#263238;stroke-linecap:round;stroke-linejoin:round"></path><path d="M346.75,433.13a9,9,0,0,0,12,13.39" style="fill:none;stroke:#263238;stroke-linecap:round;stroke-linejoin:round"></path><path d="M350.14,430l-2.35,2.17" style="fill:none;stroke:#263238;stroke-linecap:round;stroke-linejoin:round"></path><path d="M385,422.1a9,9,0,0,0-13.26-12.05l-20.42,18.89" style="fill:none;stroke:#263238;stroke-linecap:round;stroke-linejoin:round"></path><path d="M89.08,345.83a5.55,5.55,0,0,0-.87.22,6.83,6.83,0,0,0,2.85,13.29l0,.13a5.58,5.58,0,0,0,4.26,3.78,5.47,5.47,0,0,0,.14,2.8,5.57,5.57,0,1,0,10.61-3.37l-6.36-20a5.56,5.56,0,0,0-10.66,3.19Z" style="fill:#1A1A1A"></path><path d="M89.08,345.83a5.55,5.55,0,0,0-.87.22,6.83,6.83,0,0,0,2.85,13.29l0,.13a5.58,5.58,0,0,0,4.26,3.78,5.47,5.47,0,0,0,.14,2.8,5.57,5.57,0,1,0,10.61-3.37l-6.36-20a5.56,5.56,0,0,0-10.66,3.19Z" style="fill:#fff;opacity:0.9"></path><path d="M83.46,357.17a6.84,6.84,0,0,0,7,3.89.53.53,0,0,0,0,.12A5.55,5.55,0,0,0,94.72,365a5.47,5.47,0,0,0,.15,2.8" style="fill:none;stroke:#263238;stroke-linecap:round;stroke-linejoin:round"></path><path d="M86.83,348.05a6.82,6.82,0,0,0-3.69,8.29" style="fill:none;stroke:#263238;stroke-linecap:round;stroke-linejoin:round"></path><path d="M99.11,344.35a5.56,5.56,0,0,0-10.66,3.19" style="fill:none;stroke:#263238;stroke-linecap:round;stroke-linejoin:round"></path><path d="M100,347.08c-.24-.74-.44-1.38-.6-1.89" style="fill:none;stroke:#263238;stroke-linecap:round;stroke-linejoin:round"></path><path d="M95.24,368.66a5.57,5.57,0,0,0,10.24-4.27c-.5-1.54-3.46-10.88-5.21-16.4" style="fill:none;stroke:#263238;stroke-linecap:round;stroke-linejoin:round"></path><path d="M395,372.25a7.75,7.75,0,0,0,.83.37,6.83,6.83,0,0,0,5.81-12.3l0-.12a5.56,5.56,0,0,0-1.08-5.59,5.42,5.42,0,0,0,1.59-2.31,5.57,5.57,0,0,0-10.48-3.77c-.71,2-6.1,17-7.11,19.79a5.56,5.56,0,0,0,10.4,3.93Z" style="fill:#1A1A1A"></path><path d="M395,372.25a7.75,7.75,0,0,0,.83.37,6.83,6.83,0,0,0,5.81-12.3l0-.12a5.56,5.56,0,0,0-1.08-5.59,5.42,5.42,0,0,0,1.59-2.31,5.57,5.57,0,0,0-10.48-3.77c-.71,2-6.1,17-7.11,19.79a5.56,5.56,0,0,0,10.4,3.93Z" style="fill:#fff;opacity:0.9"></path><path d="M406.38,366.66a6.83,6.83,0,0,0-3.18-7.33.37.37,0,0,0,.05-.11,5.56,5.56,0,0,0-1.08-5.59,5.51,5.51,0,0,0,1.59-2.31" style="fill:none;stroke:#263238;stroke-linecap:round;stroke-linejoin:round"></path><path d="M398.17,371.86a6.83,6.83,0,0,0,8-4.34" style="fill:none;stroke:#263238;stroke-linecap:round;stroke-linejoin:round"></path><path d="M386.17,367.34a5.56,5.56,0,0,0,10.4,3.93" style="fill:none;stroke:#263238;stroke-linecap:round;stroke-linejoin:round"></path><path d="M387.13,364.64l-.67,1.87" style="fill:none;stroke:#263238;stroke-linecap:round;stroke-linejoin:round"></path><path d="M404,350.38a5.57,5.57,0,0,0-10.72-2.83l-5.82,16.2" style="fill:none;stroke:#263238;stroke-linecap:round;stroke-linejoin:round"></path></g><g id="freepik--Character--inject-4"><path d="M260.19,44.74c-3.45-2.07-17.11-6.79-27.05,12.95-12.4,24.61-21.37,60.78-9.57,64s18.3,4.15,22.08-5.87,1.26-29.24,5.27-39.53S275.87,54.15,260.19,44.74Z" style="fill:#263238;stroke:#263238;stroke-linecap:round;stroke-linejoin:round"></path><path d="M252.52,46.87a3.23,3.23,0,0,0-4-3.86c-5,1.28-10.66,5.25-15.41,14.68a163.17,163.17,0,0,0-13.48,38.08c3.06,1.44,9.59,4,10.34.2,1-5,6.38-31.84,10.9-36.57C244.41,55.73,251.07,52.59,252.52,46.87Z" style="fill:#1A1A1A;stroke:#263238;stroke-linecap:round;stroke-linejoin:round"></path><path d="M231.83,60.36l-1.08,2.29c14.52,5.41,21.64,6.26,23.83,6.38l1.34-2.33C246.19,65.53,235.08,61.58,231.83,60.36Z" style="fill:#757575;stroke:#263238;stroke-linecap:round;stroke-linejoin:round"></path><path d="M224,79.77c-.3.91-.59,1.81-.87,2.71,13,4.77,21.88,6.33,25.43,6.81.07-.93.15-1.85.24-2.75C238.63,85,227.71,81.14,224,79.77Z" style="fill:#757575;stroke:#263238;stroke-linecap:round;stroke-linejoin:round"></path><path d="M213.43,136.44c-12.08-6.85,6.14-21.13,6.14-21.13l-.18-1.58s-20.12,15-7,24c12.26,8.4,21.07-14.76,21.07-14.76l-1.58-1S225.51,143.29,213.43,136.44Z" style="fill:#263238;stroke:#263238;stroke-linecap:round;stroke-linejoin:round"></path><path d="M226.05,131A8.48,8.48,0,1,1,220,120.62,8.47,8.47,0,0,1,226.05,131Z" style="fill:#1A1A1A;stroke:#263238;stroke-linecap:round;stroke-linejoin:round"></path><path d="M219.56,129.28a1.77,1.77,0,1,1-1.26-2.16A1.77,1.77,0,0,1,219.56,129.28Z" style="fill:#263238"></path><path d="M219.71,121.72a7.35,7.35,0,1,0,5.25,9A7.35,7.35,0,0,0,219.71,121.72Zm-3.33,12.72a5.8,5.8,0,1,1,7.08-4.14A5.8,5.8,0,0,1,216.38,134.44Z" style="fill:#263238"></path><path d="M219,124.33a4.65,4.65,0,1,0,3.32,5.68A4.64,4.64,0,0,0,219,124.33Zm-1.9,7.23a2.82,2.82,0,1,1,3.45-2A2.84,2.84,0,0,1,217.13,131.56Z" style="fill:#263238"></path><path d="M221.76,97.92s13.43,5.17,20.14,5.28c0,0-.65,21.35-13.43,18.66S219.93,103,221.76,97.92Z" style="fill:none;stroke:#7f7f7f;stroke-linecap:round;stroke-linejoin:round"></path><path d="M236.81,102.52s.28,6.33,3.74,9.2" style="fill:none;stroke:#7f7f7f;stroke-linecap:round;stroke-linejoin:round"></path><path d="M230.88,101s.52,11.76,6.94,17.1" style="fill:none;stroke:#7f7f7f;stroke-linecap:round;stroke-linejoin:round"></path><path d="M224.27,98.84s.45,15.65,8.95,22.71" style="fill:none;stroke:#7f7f7f;stroke-linecap:round;stroke-linejoin:round"></path><path d="M238,102.83c-1.24,1.94-7.76,11.59-16.49,14.48" style="fill:none;stroke:#7f7f7f;stroke-linecap:round;stroke-linejoin:round"></path><path d="M241.09,109.66c-3,3.87-8.44,9.61-15,11.38" style="fill:none;stroke:#7f7f7f;stroke-linecap:round;stroke-linejoin:round"></path><path d="M232.39,101.43c-2.57,3.34-7.06,8.3-12.6,10.77" style="fill:none;stroke:#7f7f7f;stroke-linecap:round;stroke-linejoin:round"></path><path d="M226.18,99.5a36.35,36.35,0,0,1-6,5.29" style="fill:none;stroke:#7f7f7f;stroke-linecap:round;stroke-linejoin:round"></path><path d="M220.06,104.39a18.94,18.94,0,0,0,6.68,17" style="fill:none;stroke:#7f7f7f;stroke-linecap:round;stroke-linejoin:round"></path><path d="M232.74,102.61a90.21,90.21,0,0,1-12-4.14,1.27,1.27,0,0,1,1-2.33c.12.06,12.45,5.42,20.41,5.38a1.28,1.28,0,0,1,0,2.55A38.72,38.72,0,0,1,232.74,102.61Z" style="fill:#5c5c5c;stroke:#263238;stroke-linecap:round;stroke-linejoin:round"></path><path d="M246.59,162.76s-6.88,18.35-12,18-36.61-3.41-50.53-1.69l-3.09,1.69s-4.3,7.24-4.81,9.48,1.89,8.42-1.55,9.62H174a2.63,2.63,0,0,1-2.42-1.57,36.72,36.72,0,0,1-3.22-13l-.86-4.49s-3.6-11.66-.86-13.38S176,168.59,179,169c4.21.6,11.51-.6,17-.77s13.71-5.36,30.08-.86c0,0,1.72.69,5.16-12.55C231.29,154.85,243.68,156.06,246.59,162.76Z" style="fill:#fff;stroke:#263238;stroke-linecap:round;stroke-linejoin:round"></path><path d="M179.85,182.65s-1.73-1.33-3-.87-2.06,1.85-1.83-1.08-.34-5.34.57-7.86a16.44,16.44,0,0,0,1-4.37c-3.33-.93-7.79-2.41-10-1.07-2.74,1.72.86,13.38.86,13.38l.86,4.49a36.72,36.72,0,0,0,3.22,13,2.63,2.63,0,0,0,2.42,1.57h.55c3.44-1.2,1-7.39,1.55-9.62C176.47,188.75,178.54,185,179.85,182.65Z" style="fill:#1A1A1A;stroke:#263238;stroke-linecap:round;stroke-linejoin:round"></path><path d="M169.41,183.37c-.22-3.45-1.71-5.37-2.06-10.64a11.09,11.09,0,0,1,1-5.83,3.9,3.9,0,0,0-1.69.5c-2.74,1.72.86,13.38.86,13.38l.86,4.49a36.72,36.72,0,0,0,3.22,13,2.63,2.63,0,0,0,2.42,1.57C171.4,197.36,169.64,186.82,169.41,183.37Z" style="fill:#1A1A1A;stroke:#263238;stroke-linecap:round;stroke-linejoin:round"></path><path d="M266.52,125,245,168.26s-12.71-2.86-16.49-7.62c0,0,3.48-13.78,5.93-21.56a7.81,7.81,0,0,0-.8-6.51c-1.21-1.91-2.34-4.44-1.57-6.4,1.42-3.63,11.56-9,11.56-9l10.81-2.86L266,120.65l1.12.95Z" style="fill:#1A1A1A"></path><g style="clip-path:url(#freepik--clip-path-6--inject-4)"><path d="M257.44,130.34,243,117.58c-2.29,1.27-9.68,5.53-10.88,8.59-.77,2,.36,4.49,1.57,6.4a7.81,7.81,0,0,1,.8,6.51c-2.45,7.78-5.93,21.56-5.93,21.56a10.26,10.26,0,0,0,2.26,2c4.83-3.94,6.25-20.38,9.68-19,3.25,1.31,12.76.56,16.66.18l4.47-9Z" style="opacity:0.2"></path></g><path d="M266.52,125,245,168.26s-12.71-2.86-16.49-7.62c0,0,3.48-13.78,5.93-21.56a7.81,7.81,0,0,0-.8-6.51c-1.21-1.91-2.34-4.44-1.57-6.4,1.42-3.63,11.56-9,11.56-9l10.81-2.86L266,120.65l1.12.95Z" style="fill:none;stroke:#263238;stroke-linecap:round;stroke-linejoin:round"></path><path d="M228.54,178.46s1.54-2.52,3.46-3.1" style="fill:none;stroke:#263238;stroke-linecap:round;stroke-linejoin:round"></path><path d="M228.5,158.16s10.78,6.85,18,7.83c0,0,.61,2.36-1.31,3.35a1.79,1.79,0,0,1-1.17,1.85s-10.79-2.62-16.64-7.91c0,0-.62-.44.45-2A3,3,0,0,1,228.5,158.16Z" style="fill:#1A1A1A"></path><g style="clip-path:url(#freepik--clip-path-7--inject-4)"><path d="M228.5,158.16s10.78,6.85,18,7.83c0,0,.61,2.36-1.31,3.35a1.79,1.79,0,0,1-1.17,1.85s-10.79-2.62-16.64-7.91c0,0-.62-.44.45-2A3,3,0,0,1,228.5,158.16Z" style="fill:#fff;opacity:0.7000000000000001"></path></g><path d="M228.5,158.16s10.78,6.85,18,7.83c0,0,.61,2.36-1.31,3.35a1.79,1.79,0,0,1-1.17,1.85s-10.79-2.62-16.64-7.91c0,0-.62-.44.45-2A3,3,0,0,1,228.5,158.16Z" style="fill:none;stroke:#263238;stroke-linecap:round;stroke-linejoin:round"></path><path d="M230,163.17c1.95,1.5,6.12,3.94,14.28,5.86" style="fill:none;stroke:#263238;stroke-linecap:round;stroke-linejoin:round"></path><path d="M228.54,161.77a4.08,4.08,0,0,0,.51.57" style="fill:none;stroke:#263238;stroke-linecap:round;stroke-linejoin:round"></path><path d="M283.77,142.87s11.66,9.58,12.1,11.54,9.9,35.81,17.63,47.13c0,0,3.38,6,13.5,8.82,0,0,8.92,0,9.47,3.37,0,0,.65,4.57-8.27,4.9s-11-.65-13.83-.55-11.21,1.42-10.88-2.5.87-9.47.87-9.47-19.08-30.58-20.59-43.65l-12.5-8.27Z" style="fill:#fff;stroke:#263238;stroke-linecap:round;stroke-linejoin:round"></path><path d="M327,210.36a28.09,28.09,0,0,1-9-4.22c-1.07-.08-1.07-.08-2.45,1.17-1.82,1.65,1.29,2.6.65,3.05-1.79,1.24-6.74,1.3-7.62,0s-4.43-2.31-4.43-2.31c-.19,2-.48,5.07-.68,7.53-.33,3.92,8.05,2.61,10.88,2.5s4.9.88,13.83.55,8.27-4.9,8.27-4.9C335.92,210.36,327,210.36,327,210.36Z" style="fill:#1A1A1A;stroke:#263238;stroke-linecap:round;stroke-linejoin:round"></path><path d="M328.2,218.63c5.81-.21,7.56-2.23,8.07-3.61-3,3.48-13.77,2.73-17.65,2.09s-7.51.1-11.21,0a3.72,3.72,0,0,1-3.82-2.72c0,.41-.07.81-.1,1.19-.33,3.92,8.05,2.61,10.88,2.5S319.27,219,328.2,218.63Z" style="fill:#1A1A1A;stroke:#263238;stroke-linecap:round;stroke-linejoin:round"></path><path d="M291.41,158.16a8.83,8.83,0,0,0,4.4,2.48" style="fill:none;stroke:#263238;stroke-linecap:round;stroke-linejoin:round"></path><path d="M234.89,117.39s-9.1,9.79,5,18.73,36.26,22.17,36.26,22.17,8.77-6,13.06-12.37c0,0-10.89-10-22.6-19.6a3.89,3.89,0,0,1-1.08-4.61l.48-1.06-15.12-8.25-9.63,2.07Z" style="fill:#1A1A1A;stroke:#263238;stroke-linecap:round;stroke-linejoin:round"></path><path d="M273.39,157.26s10.49-7.3,14.18-13.58c0,0,2.41.35,2.58,2.5,0,0,1.8.51,1.89,2.06,0,0-7.22,8.68-14.35,12a2.65,2.65,0,0,1-2.32-1.46S274.17,159.07,273.39,157.26Z" style="fill:#1A1A1A"></path><g style="clip-path:url(#freepik--clip-path-8--inject-4)"><path d="M273.39,157.26s10.49-7.3,14.18-13.58c0,0,2.41.35,2.58,2.5,0,0,1.8.51,1.89,2.06,0,0-7.22,8.68-14.35,12a2.65,2.65,0,0,1-2.32-1.46S274.17,159.07,273.39,157.26Z" style="fill:#fff;opacity:0.7000000000000001"></path></g><path d="M273.39,157.26s10.49-7.3,14.18-13.58c0,0,2.41.35,2.58,2.5,0,0,1.8.51,1.89,2.06,0,0-7.22,8.68-14.35,12a2.65,2.65,0,0,1-2.32-1.46S274.17,159.07,273.39,157.26Z" style="fill:none;stroke:#263238;stroke-linecap:round;stroke-linejoin:round"></path><path d="M288,148.78c-2.26,2.45-6.44,6.56-10.92,8.87" style="fill:none;stroke:#263238;stroke-linecap:round;stroke-linejoin:round"></path><path d="M289.72,146.78l-.83,1" style="fill:none;stroke:#263238;stroke-linecap:round;stroke-linejoin:round"></path><path d="M293.5,93.5c1.22-1.94,4.64-6.76,6.44-9.26a4.43,4.43,0,0,0,.73-3.37c-.41-2.15-.87-5.71.05-7.65,1.37-2.92,3.09-3.27,4.29-5.67s1.9-.48,1.55.88l-.34,1.35s2.92-2.9,3.26-.07c0,0,1.89.59,1.72,2.31,0,0,1.55.17,1.21,2.92,0,0,1.13,1.37,0,4S306.91,86,306.91,86l-9.29,16.48-6.07-1.09V96.54S292.94,94.39,293.5,93.5Z" style="fill:#fff;stroke:#263238;stroke-linecap:round;stroke-linejoin:round"></path><path d="M305.53,71.33s-2.06,3.09-1.29,3.87,1.29,0,1.29,0-.69,1.2,0,1.63,1.42-.29,1.42-.29-.3,1.23.3,1.66,1.52-.83,1.52-.83-1.18,2.12-.4,2.72,2.14-2.32,3-2.57" style="fill:none;stroke:#263238;stroke-linecap:round;stroke-linejoin:round"></path><path d="M306.1,74.51a14.18,14.18,0,0,1,2-2.84" style="fill:none;stroke:#263238;stroke-linecap:round;stroke-linejoin:round"></path><path d="M307.72,75.28a8.73,8.73,0,0,1,2.51-2.38" style="fill:none;stroke:#263238;stroke-linecap:round;stroke-linejoin:round"></path><path d="M309.14,76.86A4.11,4.11,0,0,1,311,75.28" style="fill:none;stroke:#263238;stroke-linecap:round;stroke-linejoin:round"></path><path d="M302.24,75.75s4.17-1.08,3.86,5.55" style="fill:none;stroke:#263238;stroke-linecap:round;stroke-linejoin:round"></path><path d="M282.27,68.69s3.15,6.59,3.67,11.58,3.26,11.51,3.78,13.92,1.2-1,3.78-.69c0,0-2.36,6.77,4.21,8a.6.6,0,0,0,.39.93c-1.71,2.38-6.94,9.12-9.93,7.27C284.56,107.42,278,97.11,278,97.11S279.46,65.2,282.27,68.69Z" style="fill:#fff"></path><g style="clip-path:url(#freepik--clip-path-9--inject-4)"><path d="M291.94,109c-1.91,1.12-10.31-4.74-9.22-11s0-22.2,0-22.2l-2.89-.54c-1.19,8.48-1.8,21.9-1.8,21.9s6.53,10.31,10.14,12.54C289.23,110.31,290.57,109.87,291.94,109Z" style="opacity:0.2"></path></g><path d="M282.27,68.69s3.15,6.59,3.67,11.58,3.26,11.51,3.78,13.92,1.2-1,3.78-.69c0,0-2.36,6.77,4.21,8a.6.6,0,0,0,.39.93c-1.71,2.38-6.94,9.12-9.93,7.27C284.56,107.42,278,97.11,278,97.11S279.46,65.2,282.27,68.69Z" style="fill:none;stroke:#263238;stroke-linecap:round;stroke-linejoin:round"></path><path d="M286.28,104.15s1.72-8.42,2.92-7.9-1.2,3.44,2.07,7.9" style="fill:none;stroke:#263238;stroke-linecap:round;stroke-linejoin:round"></path><path d="M276.08,105.36c3.67-6.42,11.46-25.9,6.19-36.67S265,55.41,256.84,54C236.59,50.44,243.09,87,238.73,99.17c-2.66,7.42-3.77,14.59-5.31,19,0,0,13-4.22,22.44-.13S266.52,125,266.52,125,273.66,109.6,276.08,105.36Z" style="fill:#fff"></path><g style="clip-path:url(#freepik--clip-path-10--inject-4)"><path d="M241,79.61c-.09,1.26-.16,2.52-.23,3.76,5.31-.87,26.61-3.24,40,11.24.37-1.07.73-2.18,1.06-3.32C268.55,76.53,246.77,78.72,241,79.61Z" style="fill:#1A1A1A"></path><path d="M241.67,71.87c-.16,1.24-.29,2.51-.4,3.78,5.18-.86,27.92-3.57,41.36,12.57.29-1.2.55-2.42.76-3.64C270.24,68.7,247.62,71,241.67,71.87Z" style="fill:#1A1A1A"></path><path d="M240.51,87.2c-.1,1.45-.21,2.85-.33,4.19,3.64-.89,24.48-5.11,38,9.8.42-.93.85-1.94,1.28-3C266,83.62,244.8,86.45,240.51,87.2Z" style="fill:#1A1A1A"></path><path d="M257.52,110c-7.93-5.47-10.15-23.46-7.42-33.11S242,69.71,242,69.71c-1.63,10.41-1,23.19-3.24,29.46-2.66,7.42-3.77,14.59-5.31,19,0,0,13-4.22,22.44-.13S266.52,125,266.52,125s1.11-2.39,2.6-5.54C266.52,118.57,263.07,113.79,257.52,110Z" style="opacity:0.2"></path></g><path d="M276.08,105.36c3.67-6.42,11.46-25.9,6.19-36.67S265,55.41,256.84,54C236.59,50.44,243.09,87,238.73,99.17c-2.66,7.42-3.77,14.59-5.31,19,0,0,13-4.22,22.44-.13S266.52,125,266.52,125,273.66,109.6,276.08,105.36Z" style="fill:none;stroke:#263238;stroke-linecap:round;stroke-linejoin:round"></path><path d="M254.62,101.89c.83,4.26,3.06,10.91,8.95,14.47" style="fill:none;stroke:#263238;stroke-linecap:round;stroke-linejoin:round"></path><path d="M254.11,98s0,.66.15,1.74" style="fill:none;stroke:#263238;stroke-linecap:round;stroke-linejoin:round"></path><path d="M209.29,86l-8.83,25s-3.78,5.5-2.4,8.48a2.31,2.31,0,0,0,1.14,2.41,2.35,2.35,0,0,0,1.84,1.72,5.47,5.47,0,0,0,4.12,1.37c2.52-.23.52-2.75,1-4.47s0,5,2,5.16.52-3.1.63-6.19-.23-5-1.49-7c0,0,5.85-15.23,10.32-21C217.54,91.38,214,85.42,209.29,86Z" style="fill:#fff;stroke:#263238;stroke-linecap:round;stroke-linejoin:round"></path><path d="M205.12,120.18s-.39,1.76-1.07,1.93.81,0,1.5.91-.65-.69-.39-1.42" style="fill:none;stroke:#263238;stroke-linecap:round;stroke-linejoin:round"></path><path d="M202.67,122.72s-1.29.55-1.68-.65-1-.39-1.46-1.55-1.33-1.37-1.37-2.62" style="fill:none;stroke:#263238;stroke-linecap:round;stroke-linejoin:round"></path><path d="M255.46,54s-6.13-2.93-16.27,3.77-25.43,15-28,21a51.35,51.35,0,0,0-3.1,8.59s3.78.52,9.11,6.19L222,85.59s27-14.43,30.6-17.53" style="fill:#fff;stroke:#263238;stroke-linecap:round;stroke-linejoin:round"></path><path d="M220.08,83.53s-.28-3.67-2.54-4.58,1.68-2.52,3.4,0" style="fill:#fff;stroke:#263238;stroke-linecap:round;stroke-linejoin:round"></path><path d="M285.56,36.57s3.6-3.52,2.87-4.16a1.47,1.47,0,0,0-1.69,0s1.34-3.09-.54-3.82-2.48,0-2.48,0-.16-2.06-1.76-2.23a5,5,0,0,0-2.66.41s-.06-1.05-2.07-1.2-2.51.88-2.51.88a1.56,1.56,0,0,0-2-1.13,3.14,3.14,0,0,0-2.31,1.44s-.94-1.19-2-.7a4.67,4.67,0,0,0-1.78,2.17,2,2,0,0,0-1.86,0c-1,.55-.77,2.6-.77,2.6s-1.56,0-2.07,1,.71,2.56.71,2.56-1.71.39-2,1.77a1.85,1.85,0,0,0,1.2,2s-1.32,1-1.1,2.08a1.54,1.54,0,0,0,1.1,1.29,2.86,2.86,0,0,0,.24,2.36,2.06,2.06,0,0,0,1.41.89,1.94,1.94,0,0,0,.85,1.9c1.07.64.95,1.56,2.42,3.16s1.29,2.64,2.51,2.81.29-3.16,1.52-3.78,4.41-5.2,4.41-5.2l2.08-3.52,5.85-3.12Z" style="fill:#263238;stroke:#263238;stroke-linecap:round;stroke-linejoin:round"></path><path d="M278.13,63.13c-4-3.81-9.44-6.16-14.56-7.68a24.09,24.09,0,0,0,9.58,14.69C280.61,75.44,278.71,65.63,278.13,63.13Z" style="fill:#1A1A1A;stroke:#263238;stroke-linecap:round;stroke-linejoin:round"></path><path d="M265.06,55.91a19.77,19.77,0,0,0,8,12.52c7,5,4-6.26,4-6.26a9.08,9.08,0,0,1,3-5.79l-7.51-12.21S272,50.29,265.06,55.91Z" style="fill:#fff;stroke:#263238;stroke-linecap:round;stroke-linejoin:round"></path><path d="M270.48,49.78c.87,2.18,2.34,5,4.57,6.57a35.8,35.8,0,0,0,3.26,2.13,7.7,7.7,0,0,1,1.78-2.1l-5.68-9.24h-2.64A18,18,0,0,1,270.48,49.78Z" style="fill:#263238"></path><path d="M271.66,45.25s-2-3.91-4.06-1.08.86,6,3.49,5.53c0,0,1.36,4.48,4.88,6.38s5.2,2.55,8,1.78,2.15-4,2.85-7.28a29,29,0,0,0,.37-7.21,11.21,11.21,0,0,0-.51-5s-.6-4.43-3.33-3.93S277.46,33.1,276,34s-2.4,3.91-1.81,5.61-1,3.64-1.11,5.42S272.73,46.11,271.66,45.25Z" style="fill:#fff;stroke:#263238;stroke-linecap:round;stroke-linejoin:round"></path><path d="M271.66,45.25s-2-3.91-4.06-1.08.86,6,3.49,5.53c0,0,1.36,4.48,4.88,6.38s5.2,2.55,8,1.78,2.15-4,2.85-7.28a29,29,0,0,0,.37-7.21,11.21,11.21,0,0,0-.51-5s-.6-4.43-3.33-3.93S277.46,33.1,276,34s-2.4,3.91-1.81,5.61-1,3.64-1.11,5.42S272.73,46.11,271.66,45.25Z" style="fill:#fff;stroke:#263238;stroke-linecap:round;stroke-linejoin:round"></path><path d="M284.39,44.74a7,7,0,0,0,.47,2.06c.32.88,1.15,1.73,1.11,2.05-.08.79-2,.1-2.47.69" style="fill:#fff;stroke:#263238;stroke-linecap:round;stroke-linejoin:round"></path><path d="M281.87,43.73c0,.61-.21,1.1-.51,1.11s-.55-.47-.57-1.08.21-1.11.51-1.11S281.85,43.12,281.87,43.73Z" style="fill:#263238"></path><path d="M286.58,43.75c0,.55-.19,1-.46,1s-.51-.43-.52-1,.19-1,.46-1S286.56,43.21,286.58,43.75Z" style="fill:#263238"></path><path d="M278.26,41.72s2.35-2.59,4.77-.1" style="fill:none;stroke:#263238;stroke-linecap:round;stroke-linejoin:round;stroke-width:1.5px"></path><path d="M285.71,41.34s.94-1.08,1.52-.05" style="fill:none;stroke:#263238;stroke-linecap:round;stroke-linejoin:round;stroke-width:1.5px"></path><path d="M278.21,50.2A8.68,8.68,0,0,0,284,51.31" style="fill:none;stroke:#263238;stroke-linecap:round;stroke-linejoin:round"></path><path d="M283.94,57.86a3,3,0,0,0,.92-.42,5.36,5.36,0,0,0-1-2.92c-.12,0-.19.82-.19.82a12.5,12.5,0,0,0-1-.94c-.16-.09-.08,1.61-.08,1.61s-1.41-3.12-.94-1.29a10,10,0,0,1,0,3.45A8,8,0,0,0,283.94,57.86Z" style="fill:#263238;stroke:#263238;stroke-linecap:round;stroke-linejoin:round"></path><path d="M270.5,53.74s.23,5.44,1.6,8.31" style="fill:none;stroke:#263238;stroke-linecap:round;stroke-linejoin:round"></path><path d="M255.46,51.43S257.08,85.82,236,97.92l.83,1.77s16.63-4.71,20.71-30c.74-4.53,1.57-18.28,1.57-18.28Z" style="fill:#263238;stroke:#263238;stroke-linecap:round;stroke-linejoin:round"></path><path d="M280.35,64.21a.25.25,0,0,0-.38.28c1.12,3.25,5.38,18.47-3.89,40.87,0,0,9.3-20,7.42-35.65A7.3,7.3,0,0,0,280.35,64.21Z" style="fill:#263238;stroke:#263238;stroke-linecap:round;stroke-linejoin:round"></path></g></svg>